<svg width="50" height="51" viewBox="0 0 50 51" fill="none" xmlns="http://www.w3.org/2000/svg">
<path d="M24.9701 0.411865C28.4349 0.411865 31.6806 1.06897 34.7073 2.38319C37.734 3.69741 40.3823 5.47957 42.6523 7.72967C44.9223 9.97977 46.7145 12.6182 48.0287 15.6448C49.3429 18.6715 50 21.9172 50 25.382C50 28.8468 49.3429 32.0925 48.0287 35.1192C46.7145 38.1458 44.9223 40.7942 42.6523 43.0642C40.3823 45.3342 37.734 47.1263 34.7073 48.4405C31.6806 49.7548 28.4349 50.4119 24.9701 50.4119C21.5054 50.4119 18.2597 49.7548 15.233 48.4405C12.2063 47.1263 9.5679 45.3342 7.3178 43.0642C5.0677 40.7942 3.28554 38.1458 1.97133 35.1192C0.657109 32.0925 0 28.8468 0 25.382C0 21.9172 0.657109 18.6715 1.97133 15.6448C3.28554 12.6182 5.0677 9.97977 7.3178 7.72967C9.5679 5.47957 12.2063 3.69741 15.233 2.38319C18.2597 1.06897 21.5054 0.411865 24.9701 0.411865ZM24.9701 39.48C26.9215 39.48 28.7535 39.1116 30.466 38.3748C32.1784 37.6381 33.6718 36.6325 34.9462 35.3581C36.2206 34.0837 37.2262 32.5903 37.963 30.8778C38.6997 29.1653 39.0681 27.3334 39.0681 25.382C39.0681 23.4306 38.6997 21.6086 37.963 19.916C37.2262 18.2235 36.2206 16.74 34.9462 15.4656C33.6718 14.1912 32.1784 13.1857 30.466 12.4489C28.7535 11.7121 26.9215 11.3438 24.9701 11.3438C23.0585 11.3438 21.2465 11.7121 19.534 12.4489C17.8216 13.1857 16.3282 14.1912 15.0538 15.4656C13.7794 16.74 12.7738 18.2235 12.037 19.916C11.3003 21.6086 10.9319 23.4306 10.9319 25.382C10.9319 27.3334 11.3003 29.1653 12.037 30.8778C12.7738 32.5903 13.7794 34.0837 15.0538 35.3581C16.3282 36.6325 17.8216 37.6381 19.534 38.3748C21.2465 39.1116 23.0585 39.48 24.9701 39.48ZM26.1649 25.8002C24.1338 26.4772 22.2919 27.4529 20.6392 28.7273C18.9865 30.0017 17.5627 31.5349 16.368 33.327C14.4962 31.2562 13.4608 28.787 13.2616 25.9196C13.5802 25.9595 13.869 25.9794 14.1278 25.9794H14.9343C18.5982 25.9794 22.1027 25.3621 25.448 24.1275L25.8065 24.9638L26.1649 25.8002ZM27.6583 23.2315C30.1673 22.1164 32.497 20.6428 34.6476 18.8109C36.0016 20.7623 36.6786 22.9328 36.6786 25.3223C35.1653 24.9638 33.6918 24.7846 32.2581 24.7846C30.9438 24.7846 29.6695 24.924 28.4349 25.2028C28.3154 24.8842 28.1959 24.5556 28.0765 24.2171C27.957 23.8786 27.8176 23.5501 27.6583 23.2315ZM18.1601 34.9399C19.1955 33.2673 20.4699 31.8436 21.9833 30.6687C23.4966 29.4939 25.1493 28.6078 26.9415 28.0104C27.3795 29.3645 27.738 30.7484 28.0167 32.1622C28.2955 33.5759 28.5145 35.0196 28.6738 36.4931C27.5189 36.8914 26.2843 37.0905 24.9701 37.0905C22.4612 37.0905 20.1912 36.3736 18.1601 34.9399ZM29.2115 27.4131C30.3266 27.2139 31.3421 27.1144 32.2581 27.1144C33.7316 27.1144 35.1255 27.3135 36.4397 27.7117C36.1211 29.3446 35.4839 30.838 34.5281 32.192C33.5723 33.5461 32.3775 34.6413 30.9438 35.4776C30.6651 32.7695 30.0876 30.0813 29.2115 27.4131ZM33.1541 17.0188C32.1187 17.8551 31.0633 18.6217 29.9881 19.3187C28.9128 20.0156 27.7977 20.6229 26.6428 21.1407C25.9658 19.9061 25.2389 18.7014 24.4624 17.5266C23.6858 16.3517 22.8395 15.2068 21.9235 14.0917C22.8793 13.8129 23.8949 13.6735 24.9701 13.6735C26.5233 13.6735 27.9968 13.9622 29.3907 14.5397C30.7845 15.1172 32.039 15.9435 33.1541 17.0188ZM24.4325 22.0367C21.366 23.112 18.1999 23.6496 14.9343 23.6496H14.1278L13.4409 23.5899C13.7196 21.7579 14.3967 20.0853 15.4719 18.572C16.5472 17.0586 17.9211 15.8639 19.5938 14.9877C21.4656 17.1383 23.0785 19.4879 24.4325 22.0367Z" fill="white"/>
</svg>
