<svg width="30" height="31" viewBox="0 0 30 31" fill="none" xmlns="http://www.w3.org/2000/svg">
<path d="M14.9821 0.412109C17.0609 0.412109 19.0084 0.806375 20.8244 1.59491C22.6404 2.38344 24.2294 3.45273 25.5914 4.80279C26.9534 6.15285 28.0287 7.73589 28.8172 9.5519C29.6057 11.3679 30 13.3153 30 15.3942C30 17.473 29.6057 19.4205 28.8172 21.2365C28.0287 23.0525 26.9534 24.6415 25.5914 26.0035C24.2294 27.3655 22.6404 28.4408 20.8244 29.2293C19.0084 30.0178 17.0609 30.4121 14.9821 30.4121C12.9032 30.4121 10.9558 30.0178 9.13979 29.2293C7.32378 28.4408 5.74074 27.3655 4.39068 26.0035C3.04062 24.6415 1.97133 23.0525 1.1828 21.2365C0.394265 19.4205 0 17.473 0 15.3942C0 13.3153 0.394265 11.3679 1.1828 9.5519C1.97133 7.73589 3.04062 6.15285 4.39068 4.80279C5.74074 3.45273 7.32378 2.38344 9.13979 1.59491C10.9558 0.806375 12.9032 0.412109 14.9821 0.412109ZM14.9821 23.853C16.1529 23.853 17.2521 23.6319 18.2796 23.1899C19.3071 22.7478 20.2031 22.1445 20.9677 21.3799C21.7324 20.6152 22.3357 19.7192 22.7778 18.6917C23.2198 17.6642 23.4409 16.565 23.4409 15.3942C23.4409 14.2233 23.2198 13.1302 22.7778 12.1146C22.3357 11.0991 21.7324 10.209 20.9677 9.44437C20.2031 8.67973 19.3071 8.07639 18.2796 7.63433C17.2521 7.19228 16.1529 6.97125 14.9821 6.97125C13.8351 6.97125 12.7479 7.19228 11.7204 7.63433C10.693 8.07639 9.79689 8.67973 9.03226 9.44437C8.26762 10.209 7.66428 11.0991 7.22222 12.1146C6.78017 13.1302 6.55914 14.2233 6.55914 15.3942C6.55914 16.565 6.78017 17.6642 7.22222 18.6917C7.66428 19.7192 8.26762 20.6152 9.03226 21.3799C9.79689 22.1445 10.693 22.7478 11.7204 23.1899C12.7479 23.6319 13.8351 23.853 14.9821 23.853ZM15.6989 15.6451C14.4803 16.0513 13.3751 16.6367 12.3835 17.4014C11.3919 18.166 10.5376 19.0859 9.82079 20.1612C8.69773 18.9187 8.07646 17.4372 7.95699 15.7168C8.14815 15.7407 8.32139 15.7526 8.4767 15.7526H8.96057C11.1589 15.7526 13.2616 15.3822 15.2688 14.6415L15.4839 15.1433L15.6989 15.6451ZM16.595 14.1039C18.1004 13.4348 19.4982 12.5507 20.7885 11.4515C21.601 12.6224 22.0072 13.9247 22.0072 15.3583C21.0992 15.1433 20.2151 15.0358 19.3548 15.0358C18.5663 15.0358 17.8017 15.1194 17.0609 15.2867C16.9892 15.0955 16.9176 14.8984 16.8459 14.6953C16.7742 14.4922 16.6906 14.295 16.595 14.1039ZM10.8961 21.129C11.5173 20.1254 12.282 19.2711 13.19 18.5662C14.098 17.8613 15.0896 17.3297 16.1649 16.9713C16.4277 17.7837 16.6428 18.614 16.81 19.4623C16.9773 20.3106 17.1087 21.1767 17.2043 22.0609C16.5114 22.2998 15.7706 22.4193 14.9821 22.4193C13.4767 22.4193 12.1147 21.9892 10.8961 21.129ZM17.5269 16.6128C18.1959 16.4934 18.8053 16.4336 19.3548 16.4336C20.2389 16.4336 21.0753 16.5531 21.8638 16.792C21.6726 17.7717 21.2903 18.6678 20.7168 19.4802C20.1434 20.2926 19.4265 20.9497 18.5663 21.4515C18.399 19.8267 18.0526 18.2138 17.5269 16.6128ZM19.8925 10.3763C19.2712 10.8781 18.638 11.338 17.9928 11.7562C17.3477 12.1744 16.6786 12.5388 15.9857 12.8494C15.5795 12.1086 15.1434 11.3858 14.6774 10.6809C14.2115 9.97603 13.7037 9.28905 13.1541 8.62C13.7276 8.45273 14.3369 8.3691 14.9821 8.3691C15.914 8.3691 16.7981 8.54234 17.6344 8.88881C18.4707 9.23529 19.2234 9.73111 19.8925 10.3763ZM14.6595 13.387C12.8196 14.0322 10.92 14.3548 8.96057 14.3548H8.4767L8.06452 14.3189C8.23178 13.2198 8.63799 12.2162 9.28315 11.3082C9.92832 10.4002 10.7527 9.68332 11.7563 9.15763C12.8793 10.448 13.8471 11.8577 14.6595 13.387Z" fill="#252525"/>
</svg>
