<svg width="50" height="51" viewBox="0 0 50 51" fill="none" xmlns="http://www.w3.org/2000/svg">
<path d="M24.9702 0.411865C28.4267 0.411865 31.6746 1.06741 34.7139 2.37849C37.7533 3.68958 40.4052 5.47742 42.6698 7.74202C44.9344 10.0066 46.7223 12.6487 48.0334 15.6681C49.3445 18.6876 50 21.9256 50 25.3821C50 28.8386 49.3445 32.0865 48.0334 35.1258C46.7223 38.1651 44.9344 40.8171 42.6698 43.0817C40.4052 45.3463 37.7533 47.1342 34.7139 48.4452C31.6746 49.7563 28.4267 50.4119 24.9702 50.4119C21.5137 50.4119 18.2757 49.7563 15.2563 48.4452C12.2368 47.1342 9.59476 45.3463 7.33015 43.0817C5.06555 40.8171 3.27771 38.1651 1.96663 35.1258C0.655542 32.0865 0 28.8386 0 25.3821C0 21.9256 0.655542 18.6876 1.96663 15.6681C3.27771 12.6487 5.06555 10.0066 7.33015 7.74202C9.59476 5.47742 12.2368 3.68958 15.2563 2.37849C18.2757 1.06741 21.5137 0.411865 24.9702 0.411865ZM34.3862 11.3177H29.0822C28.0493 11.3177 27.0957 11.4965 26.2217 11.8541C25.3476 12.2116 24.5828 12.6884 23.9273 13.2843C23.2718 13.8803 22.7652 14.5557 22.4076 15.3106C22.0501 16.0654 21.8713 16.8203 21.8713 17.5752V20.7337H17.1633V26.9315H21.8713V39.4464H28.1287V26.9315H32.7771V20.7337H28.1287V19.1246C28.1287 18.6479 28.3174 18.2704 28.6949 17.9923C29.0723 17.7142 29.4001 17.5752 29.6782 17.5752H34.3862V11.3177Z" fill="white"/>
</svg>
