<svg width="30" height="31" viewBox="0 0 30 31" fill="none" xmlns="http://www.w3.org/2000/svg">
<path d="M14.9821 0.412109C17.056 0.412109 19.0048 0.805435 20.8284 1.59209C22.652 2.37874 24.2431 3.45144 25.6019 4.8102C26.9607 6.16896 28.0334 7.75418 28.82 9.56586C29.6067 11.3775 30 13.3203 30 15.3942C30 17.4681 29.6067 19.4169 28.82 21.2405C28.0334 23.0641 26.9607 24.6553 25.6019 26.014C24.2431 27.3728 22.652 28.4455 20.8284 29.2321C19.0048 30.0188 17.056 30.4121 14.9821 30.4121C12.9082 30.4121 10.9654 30.0188 9.15375 29.2321C7.34207 28.4455 5.75685 27.3728 4.39809 26.014C3.03933 24.6553 1.96663 23.0641 1.17998 21.2405C0.393325 19.4169 0 17.4681 0 15.3942C0 13.3203 0.393325 11.3775 1.17998 9.56586C1.96663 7.75418 3.03933 6.16896 4.39809 4.8102C5.75685 3.45144 7.34207 2.37874 9.15375 1.59209C10.9654 0.805435 12.9082 0.412109 14.9821 0.412109ZM20.6317 6.95561H17.4493C16.8296 6.95561 16.2574 7.06288 15.733 7.27742C15.2086 7.49197 14.7497 7.77802 14.3564 8.13559C13.9631 8.49316 13.6591 8.8984 13.4446 9.35132C13.23 9.80424 13.1228 10.2572 13.1228 10.7101V12.6052H10.298V16.3239H13.1228V23.8328H16.8772V16.3239H19.6663V12.6052H16.8772V11.6398C16.8772 11.3537 16.9905 11.1272 17.2169 10.9604C17.4434 10.7935 17.64 10.7101 17.8069 10.7101H20.6317V6.95561Z" fill="#252525"/>
</svg>
