<svg width="50" height="51" viewBox="0 0 50 51" fill="none" xmlns="http://www.w3.org/2000/svg">
<path d="M24.9701 0.411865C28.4349 0.411865 31.6806 1.06897 34.7073 2.38319C37.734 3.69741 40.3823 5.47957 42.6523 7.72967C44.9223 9.97977 46.7145 12.6182 48.0287 15.6448C49.3429 18.6715 50 21.9172 50 25.382C50 28.8468 49.3429 32.0925 48.0287 35.1192C46.7145 38.1458 44.9223 40.7942 42.6523 43.0642C40.3823 45.3342 37.734 47.1263 34.7073 48.4405C31.6806 49.7548 28.4349 50.4119 24.9701 50.4119C21.5054 50.4119 18.2597 49.7548 15.233 48.4405C12.2063 47.1263 9.5679 45.3342 7.3178 43.0642C5.0677 40.7942 3.28554 38.1458 1.97133 35.1192C0.657109 32.0925 0 28.8468 0 25.382C0 21.9172 0.657109 18.6715 1.97133 15.6448C3.28554 12.6182 5.0677 9.97977 7.3178 7.72967C9.5679 5.47957 12.2063 3.69741 15.233 2.38319C18.2597 1.06897 21.5054 0.411865 24.9701 0.411865ZM17.2043 19.1693H10.9319V39.48H17.2043V19.1693ZM14.0382 17.5564C14.9144 17.5564 15.6611 17.2577 16.2784 16.6604C16.8957 16.063 17.2043 15.3262 17.2043 14.4501C17.2043 13.574 16.8957 12.8372 16.2784 12.2398C15.6611 11.6425 14.9144 11.3438 14.0382 11.3438C13.1621 11.3438 12.4253 11.6425 11.828 12.2398C11.2306 12.8372 10.9319 13.574 10.9319 14.4501C10.9319 15.3262 11.2306 16.063 11.828 16.6604C12.4253 17.2577 13.1621 17.5564 14.0382 17.5564ZM39.0681 27.7117C39.0681 26.2781 38.6699 24.8742 37.8734 23.5003C37.0769 22.1263 36.0414 21.0809 34.767 20.3641C33.6121 19.7269 32.268 19.3884 30.7348 19.3485C29.2015 19.3087 27.7977 19.5676 26.5233 20.1251V19.1693H20.3106V39.48H26.5233V27.0546L29.1517 25.8002C29.4703 25.6409 29.8984 25.5612 30.4361 25.5612C30.9737 25.5612 31.4018 25.6608 31.7204 25.8599C31.9594 25.9794 32.1983 26.2382 32.4373 26.6365C32.6762 27.0347 32.7957 27.3931 32.7957 27.7117V39.48H39.0681V27.7117Z" fill="white"/>
</svg>
