<svg width="30" height="31" viewBox="0 0 30 31" fill="none" xmlns="http://www.w3.org/2000/svg">
<path d="M14.9821 0.412109C17.0609 0.412109 19.0084 0.806375 20.8244 1.59491C22.6404 2.38344 24.2294 3.45273 25.5914 4.80279C26.9534 6.15285 28.0287 7.73589 28.8172 9.5519C29.6057 11.3679 30 13.3153 30 15.3942C30 17.473 29.6057 19.4205 28.8172 21.2365C28.0287 23.0525 26.9534 24.6415 25.5914 26.0035C24.2294 27.3655 22.6404 28.4408 20.8244 29.2293C19.0084 30.0178 17.0609 30.4121 14.9821 30.4121C12.9032 30.4121 10.9558 30.0178 9.13979 29.2293C7.32378 28.4408 5.74074 27.3655 4.39068 26.0035C3.04062 24.6415 1.97133 23.0525 1.1828 21.2365C0.394265 19.4205 0 17.473 0 15.3942C0 13.3153 0.394265 11.3679 1.1828 9.5519C1.97133 7.73589 3.04062 6.15285 4.39068 4.80279C5.74074 3.45273 7.32378 2.38344 9.13979 1.59491C10.9558 0.806375 12.9032 0.412109 14.9821 0.412109ZM10.3226 11.6666H6.55914V23.853H10.3226V11.6666ZM8.42294 10.6988C8.94863 10.6988 9.39666 10.5196 9.76703 10.1612C10.1374 9.80279 10.3226 9.36074 10.3226 8.83505C10.3226 8.30936 10.1374 7.86731 9.76703 7.50888C9.39666 7.15046 8.94863 6.97125 8.42294 6.97125C7.89725 6.97125 7.4552 7.15046 7.09677 7.50888C6.73835 7.86731 6.55914 8.30936 6.55914 8.83505C6.55914 9.36074 6.73835 9.80279 7.09677 10.1612C7.4552 10.5196 7.89725 10.6988 8.42294 10.6988ZM23.4409 16.792C23.4409 15.9318 23.2019 15.0895 22.724 14.2652C22.2461 13.4408 21.6249 12.8135 20.8602 12.3834C20.1673 12.0011 19.3608 11.798 18.4409 11.7741C17.5209 11.7502 16.6786 11.9055 15.914 12.2401V11.6666H12.1864V23.853H15.914V16.3978L17.491 15.6451C17.6822 15.5495 17.9391 15.5017 18.2617 15.5017C18.5842 15.5017 18.8411 15.5615 19.0323 15.6809C19.1756 15.7526 19.319 15.9079 19.4624 16.1469C19.6057 16.3858 19.6774 16.6009 19.6774 16.792V23.853H23.4409V16.792Z" fill="#252525"/>
</svg>
