<svg width="30" height="31" viewBox="0 0 30 31" fill="none" xmlns="http://www.w3.org/2000/svg">
<path d="M14.9821 0.412109C17.0609 0.412109 19.0084 0.806375 20.8244 1.59491C22.6404 2.38344 24.2294 3.45273 25.5914 4.80279C26.9534 6.15285 28.0287 7.73589 28.8172 9.5519C29.6057 11.3679 30 13.3153 30 15.3942C30 17.473 29.6057 19.4205 28.8172 21.2365C28.0287 23.0525 26.9534 24.6415 25.5914 26.0035C24.2294 27.3655 22.6404 28.4408 20.8244 29.2293C19.0084 30.0178 17.0609 30.4121 14.9821 30.4121C12.9032 30.4121 10.9558 30.0178 9.13979 29.2293C7.32378 28.4408 5.74074 27.3655 4.39068 26.0035C3.04062 24.6415 1.97133 23.0525 1.1828 21.2365C0.394265 19.4205 0 17.473 0 15.3942C0 13.3153 0.394265 11.3679 1.1828 9.5519C1.97133 7.73589 3.04062 6.15285 4.39068 4.80279C5.74074 3.45273 7.32378 2.38344 9.13979 1.59491C10.9558 0.806375 12.9032 0.412109 14.9821 0.412109ZM22.4373 12.1684C23.1302 11.6427 23.7395 11.0095 24.2652 10.2687C23.9307 10.4121 23.5902 10.5316 23.2437 10.6272C22.8973 10.7227 22.5329 10.7944 22.1505 10.8422C22.5329 10.6033 22.8674 10.3106 23.1541 9.96408C23.4409 9.61761 23.644 9.24126 23.7634 8.83505C23.405 9.02621 23.0346 9.19945 22.6523 9.35476C22.27 9.51008 21.8757 9.62358 21.4695 9.69526C21.135 9.36074 20.7407 9.08595 20.2867 8.87089C19.8327 8.65584 19.3309 8.54831 18.7814 8.54831C18.2796 8.54831 17.8076 8.64389 17.3656 8.83505C16.9235 9.02621 16.5412 9.28905 16.2186 9.62358C15.8961 9.95811 15.6392 10.3464 15.448 10.7885C15.2569 11.2305 15.1613 11.7024 15.1613 12.2042C15.1613 12.3476 15.1673 12.491 15.1792 12.6343C15.1912 12.7777 15.2091 12.9091 15.233 13.0286C13.7276 12.9569 12.3298 12.5865 11.0394 11.9175C9.7491 11.2484 8.64994 10.3524 7.74194 9.22931C7.40741 9.7789 7.24014 10.3882 7.24014 11.0573C7.24014 11.6785 7.38949 12.258 7.68817 12.7956C7.98686 13.3333 8.37515 13.7693 8.85305 14.1039C8.23178 14.0561 7.6822 13.9008 7.2043 13.6379V13.6738C7.2043 14.5818 7.48507 15.3643 8.0466 16.0214C8.60812 16.6785 9.30705 17.0907 10.1434 17.258C9.97611 17.3058 9.81482 17.3416 9.6595 17.3655C9.50418 17.3894 9.34289 17.4014 9.17563 17.4014C9.05615 17.4014 8.94265 17.3954 8.83513 17.3834C8.7276 17.3715 8.6141 17.3536 8.49462 17.3297C8.73357 18.0465 9.15771 18.6439 9.76703 19.1218C10.3763 19.5997 11.0872 19.8386 11.8996 19.8386C11.2784 20.3404 10.5795 20.7287 9.80287 21.0035C9.02629 21.2783 8.21983 21.4157 7.38351 21.4157C7.21625 21.4157 7.06093 21.4097 6.91756 21.3978C6.77419 21.3858 6.63082 21.3679 6.48746 21.344C7.29988 21.8697 8.17802 22.2759 9.12186 22.5626C10.0657 22.8494 11.0514 22.9928 12.0789 22.9928C13.7515 22.9928 15.233 22.6761 16.5233 22.0429C17.8136 21.4097 18.8949 20.5973 19.767 19.6057C20.6392 18.614 21.3023 17.5029 21.7563 16.2723C22.2103 15.0417 22.4373 13.8291 22.4373 12.6343V12.1684Z" fill="#252525"/>
</svg>
