<svg width="50" height="51" viewBox="0 0 50 51" fill="none" xmlns="http://www.w3.org/2000/svg">
<path d="M24.9701 0.411865C28.4349 0.411865 31.6806 1.06897 34.7073 2.38319C37.734 3.69741 40.3823 5.47957 42.6523 7.72967C44.9223 9.97977 46.7145 12.6182 48.0287 15.6448C49.3429 18.6715 50 21.9172 50 25.382C50 28.8468 49.3429 32.0925 48.0287 35.1192C46.7145 38.1458 44.9223 40.7942 42.6523 43.0642C40.3823 45.3342 37.734 47.1263 34.7073 48.4405C31.6806 49.7548 28.4349 50.4119 24.9701 50.4119C21.5054 50.4119 18.2597 49.7548 15.233 48.4405C12.2063 47.1263 9.5679 45.3342 7.3178 43.0642C5.0677 40.7942 3.28554 38.1458 1.97133 35.1192C0.657109 32.0925 0 28.8468 0 25.382C0 21.9172 0.657109 18.6715 1.97133 15.6448C3.28554 12.6182 5.0677 9.97977 7.3178 7.72967C9.5679 5.47957 12.2063 3.69741 15.233 2.38319C18.2597 1.06897 21.5054 0.411865 24.9701 0.411865ZM37.3955 20.0057C38.5504 19.1295 39.5659 18.0742 40.4421 16.8396C39.8845 17.0785 39.317 17.2777 38.7395 17.437C38.1621 17.5963 37.5548 17.7157 36.9176 17.7954C37.5548 17.3971 38.1123 16.9093 38.5902 16.3318C39.0681 15.7544 39.4066 15.1271 39.6057 14.4501C39.0084 14.7687 38.3911 15.0574 37.7539 15.3163C37.1167 15.5751 36.4596 15.7643 35.7826 15.8838C35.225 15.3262 34.5679 14.8683 33.8112 14.5098C33.0546 14.1514 32.2182 13.9722 31.3023 13.9722C30.466 13.9722 29.6794 14.1315 28.9427 14.4501C28.2059 14.7687 27.5687 15.2068 27.0311 15.7643C26.4934 16.3219 26.0653 16.969 25.7467 17.7058C25.4281 18.4425 25.2688 19.2291 25.2688 20.0654C25.2688 20.3043 25.2788 20.5433 25.2987 20.7822C25.3186 21.0212 25.3485 21.2402 25.3883 21.4393C22.8793 21.3199 20.5496 20.7026 18.399 19.5875C16.2485 18.4724 14.4166 16.979 12.9032 15.1072C12.3457 16.0232 12.0669 17.0387 12.0669 18.1538C12.0669 19.1892 12.3158 20.155 12.8136 21.0511C13.3114 21.9471 13.9586 22.6739 14.7551 23.2315C13.7196 23.1518 12.8037 22.8929 12.0072 22.4549V22.5146C12.0072 24.028 12.4751 25.3322 13.411 26.4274C14.3469 27.5226 15.5117 28.2096 16.9056 28.4883C16.6268 28.568 16.358 28.6277 16.0992 28.6675C15.8403 28.7074 15.5715 28.7273 15.2927 28.7273C15.0936 28.7273 14.9044 28.7173 14.7252 28.6974C14.546 28.6775 14.3568 28.6476 14.1577 28.6078C14.556 29.8025 15.2628 30.7982 16.2784 31.5947C17.2939 32.3912 18.4787 32.7894 19.8327 32.7894C18.7973 33.6257 17.6324 34.2729 16.3381 34.7309C15.0438 35.1888 13.6997 35.4178 12.3059 35.4178C12.0271 35.4178 11.7682 35.4079 11.5293 35.388C11.2903 35.3681 11.0514 35.3382 10.8124 35.2984C12.1665 36.1745 13.63 36.8515 15.2031 37.3294C16.7762 37.8073 18.419 38.0463 20.1314 38.0463C22.9192 38.0463 25.3883 37.5186 27.5388 36.4632C29.6894 35.4079 31.4914 34.0538 32.945 32.4011C34.3986 30.7484 35.5038 28.8965 36.2605 26.8456C37.0171 24.7946 37.3955 22.7735 37.3955 20.7822V20.0057Z" fill="white"/>
</svg>
