<svg width="28" height="28" viewBox="0 0 28 28" fill="none" xmlns="http://www.w3.org/2000/svg">
<path d="M23.3701 6.99996V19.7604H4.70339V6.99996H23.3701ZM24.5367 4.66663H3.53672C2.89506 4.66663 2.37006 5.19163 2.37006 5.83329V20.927C2.37006 21.5687 2.89506 22.0937 3.53672 22.0937H24.5367C25.1784 22.0937 25.7034 21.5687 25.7034 20.927V5.83329C25.7034 5.19163 25.1784 4.66663 24.5367 4.66663ZM17.115 13.1366L12.74 10.22C12.6954 10.1924 12.6446 10.1765 12.5922 10.174C12.5399 10.1714 12.4878 10.1822 12.4407 10.2054C12.3942 10.2303 12.3553 10.2674 12.3281 10.3127C12.301 10.358 12.2867 10.4098 12.2867 10.4626V16.296C12.2867 16.3488 12.301 16.4006 12.3281 16.4459C12.3553 16.4912 12.3942 16.5283 12.4407 16.5532C12.4871 16.5784 12.5395 16.5904 12.5923 16.588C12.6451 16.5855 12.6961 16.5686 12.74 16.5392L17.115 13.6225C17.1549 13.5959 17.1877 13.5598 17.2103 13.5175C17.233 13.4752 17.2448 13.4279 17.2448 13.3799C17.2448 13.3319 17.233 13.2846 17.2103 13.2423C17.1877 13.1999 17.1549 13.1633 17.115 13.1366ZM18.6666 25.6666H9.33331C9.02389 25.6666 8.72714 25.5437 8.50835 25.3249C8.28956 25.1061 8.16664 24.8094 8.16664 24.5C8.16664 24.1905 8.28956 23.8938 8.50835 23.675C8.72714 23.4562 9.02389 23.3333 9.33331 23.3333H18.6666C18.9761 23.3333 19.2728 23.4562 19.4916 23.675C19.7104 23.8938 19.8333 24.1905 19.8333 24.5C19.8333 24.8094 19.7104 25.1061 19.4916 25.3249C19.2728 25.5437 18.9761 25.6666 18.6666 25.6666Z" fill="#ED0E05"/>
</svg>
