<svg width="103" height="29" viewBox="0 0 103 29" fill="none" xmlns="http://www.w3.org/2000/svg">
<path d="M7.24501 10.633H4.15294L4.14001 22.2474H2.32875L2.34169 10.633H0V8.74232H2.34169L2.32875 4.50171H4.14001L4.15294 8.74232H7.24501V10.633Z" fill="#006CE5"/>
<path d="M14.8925 22.5986C13.7022 22.5986 12.6155 22.279 11.6322 21.6397C10.6576 21.0005 9.87705 20.1451 9.29055 19.0737C8.71267 17.9933 8.42374 16.8004 8.42374 15.4949C8.42374 14.5045 8.59192 13.5817 8.9283 12.7263C9.26468 11.862 9.72611 11.1057 10.3126 10.4575C10.9077 9.80022 11.5977 9.28702 12.3826 8.91788C13.1675 8.54874 14.0041 8.36417 14.8925 8.36417C16.0827 8.36417 17.1652 8.6838 18.1398 9.32304C19.1231 9.96228 19.9036 10.8221 20.4815 11.9025C21.068 12.9829 21.3613 14.1804 21.3613 15.4949C21.3613 16.4763 21.1931 17.3946 20.8567 18.2499C20.5203 19.1052 20.0546 19.8615 19.4594 20.5188C18.8729 21.167 18.1872 21.6757 17.4024 22.0449C16.6261 22.414 15.7895 22.5986 14.8925 22.5986ZM14.8925 20.7079C15.7722 20.7079 16.5614 20.4693 17.2601 19.9921C17.9673 19.5059 18.5236 18.8667 18.929 18.0744C19.343 17.2821 19.55 16.4222 19.55 15.4949C19.55 14.5495 19.343 13.6807 18.929 12.8884C18.515 12.0871 17.9544 11.4478 17.2471 10.9707C16.5485 10.4935 15.7636 10.2549 14.8925 10.2549C14.0127 10.2549 13.2192 10.498 12.512 10.9842C11.8134 11.4613 11.2571 12.0961 10.8431 12.8884C10.4377 13.6807 10.235 14.5495 10.235 15.4949C10.235 16.4672 10.4463 17.3496 10.8689 18.1419C11.2916 18.9252 11.8565 19.5509 12.5637 20.0191C13.271 20.4783 14.0472 20.7079 14.8925 20.7079Z" fill="#006CE5"/>
<path d="M25.3638 29H23.5525V8.74232H25.3638V11.2678C25.8123 10.4125 26.4247 9.71919 27.2009 9.18799C27.9772 8.65679 28.9 8.39118 29.9696 8.39118C30.9097 8.39118 31.7894 8.57575 32.6088 8.94489C33.4368 9.31403 34.1613 9.82723 34.7823 10.4845C35.4033 11.1327 35.8906 11.8845 36.2442 12.7398C36.5979 13.5952 36.7747 14.5135 36.7747 15.4949C36.7747 16.4763 36.5979 17.3991 36.2442 18.2634C35.8906 19.1278 35.4033 19.8885 34.7823 20.5458C34.1613 21.194 33.4368 21.7027 32.6088 22.0719C31.7894 22.441 30.9097 22.6256 29.9696 22.6256C28.9 22.6256 27.9772 22.36 27.2009 21.8288C26.4247 21.2976 25.8123 20.6043 25.3638 19.749V29ZM29.9566 10.2279C29.051 10.2279 28.2618 10.4665 27.589 10.9437C26.9249 11.4118 26.4117 12.0421 26.0495 12.8344C25.6872 13.6267 25.5061 14.5135 25.5061 15.4949C25.5061 16.4582 25.6829 17.3406 26.0365 18.1419C26.3988 18.9432 26.912 19.5824 27.5761 20.0596C28.2489 20.5368 29.0424 20.7754 29.9566 20.7754C30.8536 20.7754 31.6773 20.5413 32.4277 20.0731C33.1867 19.6049 33.7947 18.9747 34.2519 18.1824C34.709 17.3811 34.9376 16.4853 34.9376 15.4949C34.9376 14.5315 34.7133 13.6537 34.2648 12.8614C33.8163 12.0601 33.2169 11.4208 32.4665 10.9437C31.7161 10.4665 30.8795 10.2279 29.9566 10.2279Z" fill="#006CE5"/>
<path d="M50.9435 13.7122V22.2474H47.7867V14.5765C47.7867 14.0453 47.6617 13.5636 47.4115 13.1315C47.1614 12.6903 46.825 12.3437 46.4024 12.0916C45.9884 11.8305 45.527 11.6999 45.0181 11.6999C44.5092 11.6999 44.0435 11.8305 43.6209 12.0916C43.2069 12.3437 42.8748 12.6903 42.6247 13.1315C42.3832 13.5636 42.2624 14.0453 42.2624 14.5765V22.2474H39.1057L39.0927 8.74232H42.2495L42.2624 9.94427C42.7023 9.45809 43.2284 9.07544 43.8408 8.79634C44.4532 8.50823 45.113 8.36417 45.8202 8.36417C46.7604 8.36417 47.6185 8.60727 48.3948 9.09345C49.171 9.57063 49.7877 10.2144 50.2449 11.0247C50.7106 11.826 50.9435 12.7218 50.9435 13.7122Z" fill="#006CE5"/>
<path d="M58.9609 22.5986C57.7707 22.5986 56.6839 22.279 55.7006 21.6397C54.726 21.0005 53.9455 20.1406 53.359 19.0602C52.7811 17.9798 52.4921 16.7869 52.4921 15.4814C52.4921 14.5 52.6603 13.5817 52.9967 12.7263C53.3331 11.862 53.7945 11.1057 54.381 10.4575C54.9761 9.80022 55.6661 9.28702 56.451 8.91788C57.2359 8.54874 58.0725 8.36417 58.9609 8.36417C59.97 8.36417 60.8929 8.58926 61.7295 9.03943C62.5748 9.4806 63.2907 10.0883 63.8772 10.8626C64.4637 11.6369 64.8906 12.5192 65.158 13.5096C65.4253 14.5 65.4857 15.5354 65.3391 16.6158H55.8818C56.0025 17.12 56.2009 17.5747 56.4769 17.9798C56.7529 18.376 57.1022 18.6956 57.5248 18.9387C57.9475 19.1728 58.4262 19.2943 58.9609 19.3033C59.5129 19.3123 60.0132 19.1773 60.4617 18.8982C60.9188 18.6101 61.2983 18.2229 61.6002 17.7367L64.8216 18.52C64.2955 19.7175 63.5106 20.6989 62.467 21.4641C61.4233 22.2204 60.2547 22.5986 58.9609 22.5986ZM55.7783 14.1444H62.1435C62.0487 13.6042 61.846 13.118 61.5355 12.6858C61.2336 12.2446 60.8584 11.8935 60.4099 11.6324C59.9614 11.3713 59.4784 11.2408 58.9609 11.2408C58.4434 11.2408 57.9647 11.3713 57.5248 11.6324C57.085 11.8845 56.7098 12.2311 56.3993 12.6723C56.0974 13.1045 55.8904 13.5952 55.7783 14.1444Z" fill="#006CE5"/>
<path d="M73.5134 22.2474H70.3825L66.0614 8.74232H69.1534L71.9609 17.4801L74.7554 8.74232H77.8733L80.6678 17.4801L83.4753 8.74232H86.5673L82.2462 22.2474H79.1153L76.3079 13.4691L73.5134 22.2474Z" fill="#006CE5"/>
<path d="M92.2083 22.4905C91.5355 22.4455 90.8844 22.306 90.2547 22.0719C89.6337 21.8288 89.0817 21.5002 88.5987 21.086C88.1157 20.6718 87.7449 20.1767 87.4861 19.6004L90.1512 18.412C90.2547 18.5921 90.4229 18.7856 90.6558 18.9927C90.8887 19.1908 91.1647 19.3573 91.4838 19.4924C91.8115 19.6274 92.1695 19.695 92.5576 19.695C92.8854 19.695 93.1959 19.65 93.4891 19.5599C93.791 19.4609 94.0325 19.3123 94.2136 19.1143C94.4034 18.9162 94.4982 18.6596 94.4982 18.3445C94.4982 18.0113 94.3861 17.7547 94.1619 17.5747C93.9462 17.3856 93.6702 17.246 93.3339 17.156C93.0061 17.057 92.687 16.9669 92.3765 16.8859C91.5571 16.7148 90.7938 16.4492 90.0865 16.0891C89.3879 15.729 88.823 15.2653 88.3917 14.6981C87.9691 14.1219 87.7578 13.4286 87.7578 12.6183C87.7578 11.7269 87.982 10.9572 88.4305 10.3089C88.8877 9.66067 89.4785 9.16098 90.203 8.80984C90.9361 8.45871 91.7253 8.28314 92.5705 8.28314C93.5969 8.28314 94.537 8.50823 95.3909 8.9584C96.2534 9.39957 96.9348 10.0253 97.435 10.8356L94.9381 12.3752C94.8174 12.1591 94.6492 11.961 94.4335 11.781C94.2179 11.5919 93.9721 11.4388 93.6961 11.3218C93.4201 11.1957 93.1312 11.1237 92.8293 11.1057C92.4412 11.0877 92.0875 11.1237 91.7684 11.2138C91.4493 11.3038 91.1905 11.4568 90.9922 11.6729C90.8024 11.889 90.7075 12.1771 90.7075 12.5373C90.7075 12.8794 90.8369 13.136 91.0957 13.307C91.3544 13.4691 91.6649 13.5952 92.0272 13.6852C92.398 13.7752 92.7517 13.8743 93.088 13.9823C93.847 14.2434 94.5586 14.563 95.2227 14.9412C95.8955 15.3193 96.4345 15.783 96.8399 16.3322C97.2453 16.8814 97.4394 17.5387 97.4221 18.3039C97.4221 19.1773 97.172 19.9426 96.6717 20.5998C96.1715 21.2481 95.5246 21.7432 94.7311 22.0854C93.9462 22.4275 93.1053 22.5626 92.2083 22.4905Z" fill="#006CE5"/>
<path d="M101.059 22.5986C100.516 22.5986 100.055 22.405 99.6751 22.0179C99.3042 21.6217 99.1187 21.14 99.1187 20.5728C99.1187 20.0146 99.3042 19.5374 99.6751 19.1413C100.055 18.7451 100.516 18.547 101.059 18.547C101.594 18.547 102.051 18.7451 102.431 19.1413C102.81 19.5374 103 20.0146 103 20.5728C103 21.14 102.81 21.6217 102.431 22.0179C102.051 22.405 101.594 22.5986 101.059 22.5986Z" fill="#006CE5"/>
</svg>
