<svg width="16" height="16" viewBox="0 0 16 16" fill="none" xmlns="http://www.w3.org/2000/svg">
<g id="icon" clip-path="url(#clip0_201_450)">
<path id="Vector" d="M10.3247 10.2919C9.94226 10.6729 9.94226 11.2971 10.3233 11.6786L14.326 15.6896C14.707 16.0721 15.3312 16.0721 15.7127 15.6911C16.0951 15.3101 16.0951 14.6858 15.7141 14.3044L11.7114 10.2933C11.3309 9.91183 10.7062 9.91085 10.3247 10.2919Z" fill="white"/>
<path id="Vector_2" d="M6.61968 1.98348C9.18811 1.98348 11.278 4.07334 11.278 6.64177C11.278 9.2102 9.18811 11.3001 6.61968 11.3001C4.05124 11.3001 1.96139 9.2102 1.96139 6.64177C1.96139 4.07334 4.05124 1.98348 6.61968 1.98348ZM6.61968 0.0220947C2.96365 0.0220947 0 2.98575 0 6.64177C0 10.2978 2.96365 13.2614 6.61968 13.2614C10.2757 13.2614 13.2394 10.2978 13.2394 6.64177C13.2394 2.98575 10.2757 0.0220947 6.61968 0.0220947Z" fill="white"/>
</g>
<defs>
<clipPath id="clip0_201_450">
<rect width="16" height="16" fill="white"/>
</clipPath>
</defs>
</svg>
