<svg width="25" height="24" viewBox="0 0 25 24" fill="none" xmlns="http://www.w3.org/2000/svg">
<g clip-path="url(#clip0_201_455)">
<path d="M23.3875 1.12543C23.3875 1.12543 15.8441 2.70172e-05 13.799 2.70172e-05C13.6312 -0.0208964 13.4608 0.00123425 13.3039 0.0643357L0.782959 12.5852C0.600725 12.7705 0.498596 13.0199 0.498596 13.2798C0.498596 13.5396 0.600725 13.7891 0.782959 13.9743L10.5193 23.7106C10.61 23.8027 10.7181 23.8756 10.8374 23.9253C10.9567 23.975 11.0846 24.0004 11.2138 24C11.3431 24.0008 11.4712 23.9756 11.5905 23.9258C11.7098 23.8761 11.8179 23.8029 11.9084 23.7106L24.4293 11.1962C24.8151 10.8103 23.3875 1.12543 23.3875 1.12543ZM11.2138 20.7717L3.7283 13.2798L14.41 2.5981C15.8633 2.69456 18.7251 3.05469 21.1109 3.38266C21.4839 6.05147 21.8119 8.7653 21.9019 10.0836L11.2138 20.7717Z" fill="#002E44"/>
<path d="M18.0563 7.87779C18.9442 7.87779 19.664 7.15799 19.664 6.27007C19.664 5.38215 18.9442 4.66235 18.0563 4.66235C17.1684 4.66235 16.4486 5.38215 16.4486 6.27007C16.4486 7.15799 17.1684 7.87779 18.0563 7.87779Z" fill="#002E44"/>
</g>
<defs>
<clipPath id="clip0_201_455">
<rect width="24" height="24" fill="white" transform="translate(0.5)"/>
</clipPath>
</defs>
</svg>
