<svg width="153" height="35" viewBox="0 0 153 35" fill="none" xmlns="http://www.w3.org/2000/svg">
<path d="M0.635742 34.5118H34.8358V0.311768H0.635742V34.5118ZM28.2531 14.1211H21.0264V6.89443H28.2531V14.1211ZM7.21708 6.89443H14.4478V20.7024H28.2531V27.9291H7.21708V6.89443ZM57.1064 0.311768C53.7243 0.311768 50.4182 1.31467 47.6062 3.19365C44.794 5.07262 42.6023 7.74327 41.308 10.8679C40.0138 13.9926 39.6752 17.4307 40.335 20.7478C40.9948 24.0648 42.6234 27.1118 45.0148 29.5032C47.4063 31.8948 50.4532 33.5234 53.7703 34.1832C57.0875 34.843 60.5256 34.5044 63.6503 33.2102C66.775 31.9159 69.4455 29.7242 71.3246 26.912C73.2035 24.0999 74.2064 20.7938 74.2064 17.4118C74.2011 12.8782 72.3978 8.53182 69.192 5.3261C65.9863 2.12037 61.64 0.317061 57.1064 0.311768ZM57.1064 27.9291C55.0263 27.9291 52.9928 27.3123 51.2632 26.1566C49.5338 25.001 48.1856 23.3584 47.3896 21.4366C46.5936 19.5148 46.3854 17.4002 46.7911 15.3599C47.197 13.3198 48.1987 11.4458 49.6695 9.97489C51.1404 8.50402 53.0144 7.50234 55.0546 7.09653C57.0947 6.69071 59.2094 6.89899 61.1312 7.69502C63.053 8.49105 64.6956 9.83909 65.8512 11.5687C67.007 13.2982 67.6238 15.3316 67.6238 17.4118C67.6195 20.1999 66.51 22.8726 64.5386 24.844C62.5671 26.8155 59.8944 27.9248 57.1064 27.9291ZM135.398 0.311768C132.016 0.311514 128.71 1.31418 125.898 3.19299C123.086 5.07181 120.894 7.74237 119.599 10.867C118.305 13.9915 117.966 17.4299 118.626 20.747C119.285 24.0642 120.914 27.1112 123.305 29.5028C125.696 31.8944 128.743 33.5232 132.061 34.1831C135.377 34.843 138.816 34.5044 141.941 33.2103C145.065 31.916 147.736 29.7243 149.614 26.9122C151.494 24.1 152.497 20.7939 152.497 17.4118C152.492 12.8784 150.689 8.53225 147.484 5.32657C144.278 2.12087 139.932 0.317421 135.398 0.311768ZM135.398 27.9291C133.318 27.9294 131.285 27.3127 129.555 26.1572C127.825 25.0018 126.477 23.3592 125.681 21.4375C124.884 19.5158 124.676 17.401 125.082 15.3607C125.487 13.3206 126.489 11.4464 127.96 9.97537C129.431 8.50435 131.305 7.50254 133.345 7.09662C135.385 6.6907 137.5 6.8989 139.421 7.6949C141.344 8.49089 142.986 9.83891 144.142 11.5686C145.297 13.2982 145.914 15.3316 145.914 17.4118C145.91 20.1996 144.801 22.872 142.829 24.8435C140.858 26.815 138.186 27.9246 135.398 27.9291ZM96.2518 0.311768C92.8696 0.311768 89.5635 1.31467 86.7515 3.19365C83.9394 5.07262 81.7476 7.74327 80.4534 10.8679C79.1591 13.9926 78.8206 17.4307 79.4803 20.7478C80.1402 24.0648 81.7687 27.1118 84.1602 29.5032C86.5516 31.8948 89.5986 33.5234 92.9156 34.1832C96.2327 34.843 99.671 34.5044 102.796 33.2102C105.92 31.9159 108.591 29.7242 110.47 26.912C112.349 24.0999 113.352 20.7938 113.352 17.4118C113.346 12.8782 111.543 8.53182 108.337 5.3261C105.132 2.12037 100.785 0.317061 96.2518 0.311768ZM96.2518 27.9291C94.3136 27.93 92.4131 27.3955 90.7596 26.3844C89.1063 25.3734 87.7643 23.9252 86.882 22.1996C85.9999 20.474 85.6115 18.5382 85.76 16.6059C85.9086 14.6735 86.588 12.8198 87.7236 11.2492C88.8592 9.67878 90.4067 8.45258 92.1951 7.70605C93.9836 6.9595 95.9436 6.72166 97.8587 7.01875C99.7739 7.31586 101.57 8.13634 103.048 9.38966C104.526 10.643 105.629 12.2804 106.236 14.1211H96.2518V20.7024H106.236C105.541 22.8028 104.203 24.6314 102.411 25.9284C100.619 27.2256 98.464 27.9255 96.2518 27.9291Z" fill="#252525"/>
</svg>
