<svg width="105" height="41" viewBox="0 0 105 41" fill="none" xmlns="http://www.w3.org/2000/svg">
<path d="M48.5537 35.6499H51.2881V25.3356H48.5537V35.6499ZM48.5537 23.7271H51.2881V21.2742H48.5537V23.7271Z" fill="#252525"/>
<path d="M53.0498 39.0278H55.7842V34.4839H55.8245C56.4075 35.3685 57.3525 35.9516 58.8001 35.9516C61.4541 35.9516 63.2636 33.8405 63.2636 30.5029C63.2636 27.2859 61.5144 25.0542 58.78 25.0542C57.3726 25.0542 56.4075 25.7177 55.744 26.6224H55.6837V25.3357H53.0498V39.0278ZM58.2171 33.6796C56.5885 33.6796 55.7239 32.4532 55.7239 30.5833C55.7239 28.7336 56.4075 27.2658 58.1165 27.2658C59.8054 27.2658 60.489 28.633 60.489 30.5833C60.489 32.5336 59.6044 33.6796 58.2171 33.6796Z" fill="#252525"/>
<path d="M68.7183 35.9516C71.2918 35.9516 73.0611 34.705 73.0611 32.6341C73.0611 30.2214 71.1511 29.7389 69.422 29.377C67.9542 29.0754 66.587 28.9949 66.587 28.1103C66.587 27.3664 67.2907 26.9642 68.3564 26.9642C69.5225 26.9642 70.2262 27.3664 70.3468 28.4722H72.8199C72.6188 26.4013 71.1109 25.0542 68.3966 25.0542C66.0442 25.0542 64.1944 26.1198 64.1944 28.3515C64.1944 30.6034 66.004 31.1061 67.8537 31.468C69.2611 31.7494 70.568 31.85 70.568 32.8352C70.568 33.559 69.8844 34.0214 68.678 34.0214C67.4516 34.0214 66.6071 33.4987 66.4262 32.3124H63.8928C64.0537 34.504 65.7225 35.9516 68.7183 35.9516Z" fill="#252525"/>
<path d="M83.4427 35.65V25.3357H80.7083V31.287C80.7083 32.6542 79.9242 33.6193 78.6374 33.6193C77.4713 33.6193 76.9284 32.9558 76.9284 31.7494V25.3357H74.2141V32.2119C74.2141 34.4637 75.5009 35.9315 77.793 35.9315C79.2406 35.9315 80.0448 35.3886 80.7486 34.4436H80.8089V35.65H83.4427Z" fill="#252525"/>
<path d="M85.2114 35.65H87.9459V29.6584C87.9459 28.2912 88.6898 27.4066 89.7956 27.4066C90.8009 27.4066 91.384 28.0097 91.384 29.1759V35.65H94.1184V29.6584C94.1184 28.2912 94.8221 27.4066 95.9681 27.4066C96.9734 27.4066 97.5565 28.0097 97.5565 29.1759V35.65H100.291V28.7135C100.291 26.4616 99.0644 25.0542 96.893 25.0542C95.5861 25.0542 94.5004 25.7378 93.7967 26.8637H93.7565C93.2538 25.778 92.2083 25.0542 90.9014 25.0542C89.4739 25.0542 88.4686 25.778 87.9056 26.723H87.8453V25.3357H85.2114V35.65Z" fill="#252525"/>
<path d="M48.5938 17.9839H51.3281V3.60815H48.5938V17.9839Z" fill="#252525"/>
<path d="M58.0141 18.2856C61.211 18.2856 63.4025 15.9131 63.4025 12.8369C63.4025 9.76067 61.211 7.38818 58.0141 7.38818C54.8173 7.38818 52.6257 9.76067 52.6257 12.8369C52.6257 15.9131 54.8173 18.2856 58.0141 18.2856ZM58.0141 16.1946C56.3252 16.1946 55.4004 14.8475 55.4004 12.8369C55.4004 10.8263 56.3252 9.45909 58.0141 9.45909C59.6829 9.45909 60.6279 10.8263 60.6279 12.8369C60.6279 14.8475 59.6829 16.1946 58.0141 16.1946Z" fill="#252525"/>
<path d="M69.2175 21.5026C70.7456 21.5026 72.0726 21.1407 72.9371 20.3364C73.7011 19.6327 74.1636 18.6475 74.1636 17.1999V7.66966H71.5297V8.75538H71.4895C70.8662 7.89082 69.9212 7.38818 68.6344 7.38818C66.0207 7.38818 64.1709 9.35856 64.1709 12.4348C64.1709 15.5512 66.4228 17.3607 68.7149 17.3607C70.0218 17.3607 70.8059 16.838 71.4091 16.1544H71.4694V17.2803C71.4694 18.6877 70.7255 19.4316 69.1773 19.4316C67.9106 19.4316 67.3276 18.929 67.1064 18.2856H64.3921C64.6736 20.2962 66.4027 21.5026 69.2175 21.5026ZM69.1773 15.1692C67.7699 15.1692 66.845 14.1438 66.845 12.3946C66.845 10.6655 67.7699 9.57972 69.1572 9.57972C70.8059 9.57972 71.6101 10.8665 71.6101 12.3745C71.6101 13.9025 70.9064 15.1692 69.1773 15.1692Z" fill="#252525"/>
<path d="M80.81 18.2856C84.0068 18.2856 86.1984 15.9131 86.1984 12.8369C86.1984 9.76067 84.0068 7.38818 80.81 7.38818C77.6132 7.38818 75.4216 9.76067 75.4216 12.8369C75.4216 15.9131 77.6132 18.2856 80.81 18.2856ZM80.81 16.1946C79.1211 16.1946 78.1962 14.8475 78.1962 12.8369C78.1962 10.8263 79.1211 9.45909 80.81 9.45909C82.4788 9.45909 83.4238 10.8263 83.4238 12.8369C83.4238 14.8475 82.4788 16.1946 80.81 16.1946Z" fill="#252525"/>
<path d="M88.5955 14.0431H100.418V11.6907H88.5955V14.0431Z" fill="#252525"/>
<path d="M101.285 23.5836C101.285 23.1209 101.66 22.7458 102.123 22.7458H103.798C104.261 22.7458 104.636 23.1209 104.636 23.5836C104.636 24.0462 104.261 24.4213 103.798 24.4213H102.123C101.66 24.4213 101.285 24.0462 101.285 23.5836Z" fill="#252525"/>
<path fill-rule="evenodd" clip-rule="evenodd" d="M20.9392 0.411865C31.9849 0.411865 40.9392 9.36617 40.9392 20.4119C40.9392 31.4576 31.9849 40.4119 20.9392 40.4119C9.89351 40.4119 0.939209 31.4576 0.939209 20.4119C0.939209 9.36617 9.89351 0.411865 20.9392 0.411865ZM20.2163 1.90846C17.9347 2.22956 15.7621 4.06295 14.0756 7.12927C13.5864 8.0187 13.145 9.00133 12.7603 10.0623C15.0535 9.48604 17.5726 9.14629 20.2163 9.09374V1.90846ZM11.07 10.5427C11.5483 9.04145 12.1335 7.66026 12.8088 6.43252C13.6448 4.91246 14.637 3.59982 15.7549 2.59164C9.676 4.3571 4.88443 9.14865 3.11898 15.2276C4.12715 14.1097 5.4398 13.1175 6.95986 12.2815C8.18761 11.6062 9.56878 11.021 11.07 10.5427ZM10.5896 12.233C10.0134 14.5262 9.67363 17.0453 9.62108 19.689H2.43579C2.7569 17.4073 4.59029 15.2347 7.65661 13.5483C8.54604 13.0591 9.52867 12.6177 10.5896 12.233ZM11.0672 19.689C11.1269 16.8039 11.5422 14.0953 12.2294 11.7021C14.6226 11.0149 17.3313 10.5995 20.2163 10.5398V13.6627C19.14 16.4181 16.9448 18.6131 14.1893 19.689H11.0672ZM9.62108 21.1348H2.43579C2.7569 23.4165 4.59029 25.589 7.65661 27.2755C8.54604 27.7647 9.52867 28.2061 10.5896 28.5908C10.0134 26.2976 9.67363 23.7785 9.62108 21.1348ZM12.2294 29.1217C11.5422 26.7285 11.1269 24.0199 11.0672 21.1348H14.1893C16.9448 22.2107 19.1401 24.4057 20.2163 27.1611V30.284C17.3313 30.2243 14.6226 29.8089 12.2294 29.1217ZM11.07 30.2811C9.56878 29.8028 8.18761 29.2176 6.95986 28.5423C5.4398 27.7063 4.12715 26.7141 3.11898 25.5962C4.88443 31.6751 9.676 36.4667 15.7549 38.2321C14.637 37.2239 13.6448 35.9113 12.8088 34.3912C12.1335 33.1635 11.5483 31.7823 11.07 30.2811ZM20.2163 38.9153C17.9347 38.5942 15.7621 36.7608 14.0756 33.6945C13.5864 32.8051 13.145 31.8224 12.7603 30.7615C15.0535 31.3377 17.5726 31.6775 20.2163 31.73V38.9153ZM26.1235 38.2321C27.2414 37.2239 28.2336 35.9113 29.0697 34.3912C29.7449 33.1635 30.3301 31.7823 30.8084 30.2811C32.3096 29.8028 33.6908 29.2176 34.9186 28.5423C36.4386 27.7063 37.7513 26.7141 38.7594 25.5962C36.994 31.6751 32.2024 36.4667 26.1235 38.2321ZM29.1181 30.7615C28.7334 31.8224 28.292 32.8051 27.8028 33.6945C26.1164 36.7608 23.9438 38.5942 21.6621 38.9153V31.73C24.3058 31.6775 26.8249 31.3377 29.1181 30.7615ZM31.2888 28.5908C32.3497 28.2061 33.3324 27.7647 34.2218 27.2755C37.2881 25.589 39.1215 23.4165 39.4426 21.1348H32.2573C32.2048 23.7785 31.865 26.2976 31.2888 28.5908ZM30.8113 21.1348C30.7516 24.0199 30.3362 26.7285 29.649 29.1217C27.2558 29.8089 24.5472 30.2243 21.6621 30.284V27.1634C22.738 24.407 24.9337 22.211 27.69 21.1348H30.8113ZM32.2573 19.689H39.4426C39.1215 17.4073 37.2881 15.2347 34.2218 13.5483C33.3324 13.0591 32.3497 12.6177 31.2888 12.233C31.865 14.5262 32.2048 17.0453 32.2573 19.689ZM29.649 11.7021C30.3362 14.0953 30.7516 16.8039 30.8113 19.689H27.69C24.9337 18.6128 22.738 16.4168 21.6621 13.6604V10.5398C24.5472 10.5995 27.2558 11.0149 29.649 11.7021ZM30.8084 10.5427C32.3096 11.021 33.6908 11.6062 34.9186 12.2815C36.4386 13.1175 37.7513 14.1097 38.7594 15.2276C36.994 9.14865 32.2024 4.3571 26.1235 2.59164C27.2414 3.59982 28.2336 4.91246 29.0697 6.43252C29.7449 7.66026 30.3301 9.04145 30.8084 10.5427ZM21.6621 1.90846C23.9438 2.22956 26.1164 4.06295 27.8028 7.12927C28.292 8.01871 28.7334 9.00133 29.1181 10.0623C26.8249 9.48604 24.3058 9.14629 21.6621 9.09374V1.90846Z" fill="#252525"/>
</svg>
