<svg width="181" height="37" viewBox="0 0 181 37" fill="none" xmlns="http://www.w3.org/2000/svg">
<path d="M27.2101 16.2384C26.7048 16.7468 26.3178 17.3604 26.0768 18.0353C25.8357 18.7104 25.7465 19.4303 25.8154 20.1437L25.7914 20.1197C25.8624 20.9596 25.749 21.8047 25.4596 22.5963C25.1701 23.3877 24.7114 24.1065 24.1156 24.7025C23.5196 25.2984 22.8008 25.7572 22.0092 26.0465C21.2177 26.336 20.3725 26.4493 19.5328 26.3784L19.5568 26.4024C18.5522 26.3089 17.5433 26.5275 16.6674 27.0284C15.7917 27.5293 15.0917 28.2881 14.663 29.2015C14.2344 30.1148 14.0977 31.138 14.2718 32.1319C14.4461 33.1256 14.9225 34.0415 15.6362 34.7545C16.35 35.4676 17.2662 35.9432 18.2601 36.1164C19.2541 36.2897 20.2772 36.1521 21.1901 35.7227C22.103 35.2931 22.8612 34.5925 23.3613 33.7163C23.8614 32.84 24.0792 31.8309 23.9848 30.8264L24.0101 30.8504C23.9392 30.0107 24.0524 29.1655 24.3418 28.3739C24.6313 27.5824 25.0901 26.8636 25.686 26.2676C26.282 25.6717 27.0008 25.2129 27.7922 24.9236C28.5838 24.6341 29.4289 24.5208 30.2688 24.5917L30.2434 24.5677C31.064 24.6415 31.89 24.5069 32.6448 24.1765C33.3994 23.8461 34.0586 23.3305 34.561 22.6776C35.0634 22.0247 35.393 21.2553 35.5189 20.4412C35.6449 19.6269 35.5633 18.7941 35.2817 18.0197C35.0001 17.2455 34.5276 16.5548 33.908 16.0117C33.2884 15.4687 32.5417 15.0908 31.7372 14.9132C30.9326 14.7356 30.0962 14.7639 29.3056 14.9955C28.5149 15.2272 27.7956 15.6547 27.2141 16.2384H27.2101Z" fill="#252525"/>
<path d="M17.374 23.2585L17.3487 23.2345C18.0624 23.3063 18.7832 23.2187 19.4591 22.9779C20.1348 22.7371 20.7487 22.3493 21.2561 21.8422C21.7635 21.3351 22.152 20.7215 22.3932 20.0459C22.6345 19.3703 22.7227 18.6497 22.6513 17.9358L22.6767 17.9598C22.6057 17.1199 22.7191 16.2749 23.0084 15.4833C23.2979 14.6918 23.7567 13.973 24.3525 13.377C24.9485 12.7811 25.6673 12.3223 26.4588 12.033C27.2504 11.7435 28.0955 11.6302 28.9353 11.7011L28.91 11.6771C29.9147 11.7715 30.9239 11.5536 31.8001 11.0533C32.6765 10.5529 33.3771 9.79444 33.8064 8.88128C34.2357 7.96813 34.3729 6.94476 34.1993 5.95074C34.0257 4.95673 33.5497 4.04049 32.8361 3.32697C32.1227 2.61346 31.2064 2.13741 30.2124 1.96378C29.2184 1.79014 28.1951 1.92736 27.2819 2.35672C26.3687 2.78606 25.6103 3.48666 25.1099 4.36294C24.6095 5.23921 24.3916 6.2485 24.486 7.25314L24.462 7.22781C24.5331 8.06766 24.42 8.91292 24.1307 9.70454C23.8413 10.4962 23.3825 11.2151 22.7867 11.8111C22.1907 12.407 21.4717 12.8658 20.6801 13.1551C19.8884 13.4445 19.0432 13.5575 18.2033 13.4865L18.2273 13.5118C17.5136 13.4399 16.7927 13.5275 16.1169 13.7683C15.4412 14.009 14.8273 14.397 14.3199 14.9041C13.8124 15.4111 13.424 16.0247 13.1827 16.7003C12.9415 17.3759 12.8533 18.0966 12.9247 18.8105L12.9007 18.7865C12.9713 19.6262 12.8579 20.4713 12.5684 21.2627C12.2788 22.0541 11.8201 22.7729 11.2243 23.3687C10.6283 23.9646 9.90962 24.4233 9.11821 24.7129C8.3268 25.0023 7.48174 25.1158 6.642 25.0451L6.666 25.0691C5.66136 24.9747 4.65206 25.1926 3.77578 25.693C2.89952 26.1934 2.19892 26.9518 1.76957 27.865C1.34021 28.7782 1.20298 29.8015 1.37662 30.7955C1.55026 31.7895 2.02632 32.7058 2.73982 33.4193C3.45334 34.1329 4.36958 34.6089 5.3636 34.7825C6.35761 34.9561 7.38098 34.8189 8.29414 34.3895C9.20729 33.9602 9.96578 33.2597 10.4661 32.3834C10.9665 31.507 11.1844 30.4978 11.09 29.4931L11.1153 29.5171C11.0444 28.6773 11.1577 27.8322 11.4472 27.0406C11.7365 26.2491 12.1953 25.5303 12.7912 24.9343C13.3872 24.3385 14.106 23.8797 14.8975 23.5903C15.6891 23.3009 16.5341 23.1875 17.374 23.2585Z" fill="#252525"/>
<path d="M8.43799 20.5825C8.94335 20.0742 9.33026 19.4606 9.57111 18.7855C9.81196 18.1105 9.90082 17.3905 9.83132 16.6771L9.85664 16.7011C9.78571 15.8611 9.89899 15.0157 10.1886 14.2239C10.4782 13.4322 10.9372 12.7133 11.5335 12.1173C12.1297 11.5213 12.8488 11.0627 13.6407 10.7734C14.4325 10.4841 15.278 10.3712 16.118 10.4425L16.0927 10.4185C17.0969 10.5126 18.1059 10.2946 18.9817 9.79427C19.8576 9.29396 20.5577 8.53566 20.9869 7.62279C21.416 6.70991 21.5531 5.68691 21.3795 4.69327C21.2059 3.69963 20.7299 2.78374 20.0167 2.07048C19.3035 1.35723 18.3875 0.881335 17.3939 0.707709C16.4003 0.534069 15.3772 0.671162 14.4644 1.10026C13.5515 1.52935 12.7932 2.22958 12.2929 3.10544C11.7925 3.98131 11.5745 4.99019 11.6687 5.99448L11.6447 5.97048C11.7156 6.81028 11.6023 7.65544 11.3128 8.44696C11.0233 9.23848 10.5647 9.9573 9.96874 10.5532C9.3728 11.1492 8.65398 11.6079 7.86246 11.8973C7.07094 12.1867 6.22579 12.3001 5.38599 12.2291L5.40999 12.2531C4.58942 12.1795 3.76354 12.3143 3.0089 12.6449C2.25426 12.9754 1.59526 13.4911 1.09298 14.1442C0.590697 14.7971 0.26139 15.5665 0.13555 16.3806C0.00972354 17.1949 0.0914435 18.0277 0.373137 18.8018C0.65483 19.5761 1.1274 20.2666 1.74704 20.8095C2.36668 21.3526 3.11335 21.7303 3.91786 21.9079C4.72235 22.0854 5.55866 22.057 6.34928 21.8254C7.1399 21.5937 7.85923 21.1662 8.44065 20.5825H8.43799Z" fill="#252525"/>
<path d="M49.7407 7.28369H53.7007V26.5544H49.7407V7.28369Z" fill="#252525"/>
<path d="M55.9433 19.9556C55.9378 18.5708 56.3434 17.2154 57.1088 16.0612C57.8741 14.9071 58.9648 14.006 60.2426 13.4723C61.5205 12.9384 62.928 12.7959 64.2869 13.0627C65.6458 13.3295 66.895 13.9935 67.8762 14.9708C68.8574 15.948 69.5265 17.1946 69.7988 18.5524C70.071 19.9103 69.9341 21.3184 69.4054 22.5984C68.8768 23.8783 67.9801 24.9727 66.829 25.7426C65.6778 26.5126 64.3242 26.9236 62.9393 26.9236C62.0201 26.9342 61.108 26.7612 60.2562 26.4151C59.4045 26.069 58.6304 25.5566 57.979 24.9079C57.3276 24.2591 56.8121 23.487 56.4626 22.6367C56.113 21.7864 55.9365 20.875 55.9433 19.9556ZM65.9753 19.9556C65.9588 19.3587 65.7666 18.7799 65.423 18.2915C65.0793 17.8032 64.5993 17.427 64.043 17.21C63.4866 16.993 62.8788 16.9447 62.2952 17.0714C61.7116 17.198 61.1782 17.4938 60.7618 17.9219C60.3456 18.3499 60.0645 18.8912 59.9542 19.4782C59.8438 20.065 59.9088 20.6714 60.1412 21.2215C60.3736 21.7716 60.7629 22.241 61.2605 22.571C61.7582 22.901 62.3422 23.077 62.9393 23.077C63.3482 23.0879 63.755 23.0139 64.1341 22.8598C64.513 22.7056 64.856 22.4747 65.1412 22.1815C65.4264 21.8882 65.6478 21.539 65.7913 21.1559C65.9349 20.7728 65.9976 20.3642 65.9753 19.9556Z" fill="#252525"/>
<path d="M85.7181 13.3556V25.889C85.7181 30.3236 82.2594 32.1983 78.7487 32.1983C77.5127 32.2908 76.275 32.0411 75.1714 31.4767C74.0679 30.9122 73.1411 30.0547 72.4927 28.9983L75.8714 27.045C76.1439 27.5956 76.5782 28.0499 77.1159 28.3471C77.6538 28.6442 78.2695 28.77 78.8807 28.7076C79.2714 28.7618 79.6693 28.7274 80.0449 28.607C80.4203 28.4866 80.7641 28.2832 81.0505 28.0122C81.3369 27.741 81.5586 27.409 81.6994 27.0404C81.8401 26.672 81.8961 26.2767 81.8634 25.8836V24.677C81.3997 25.2443 80.8095 25.6951 80.1401 25.9931C79.4706 26.2911 78.7407 26.428 78.0087 26.393C76.2671 26.338 74.6153 25.6076 73.4027 24.3562C72.1902 23.1048 71.5122 21.4307 71.5122 19.6883C71.5122 17.9459 72.1902 16.2718 73.4027 15.0204C74.6153 13.769 76.2671 13.0386 78.0087 12.9836C78.7407 12.9486 79.4706 13.0855 80.1401 13.3835C80.8095 13.6815 81.3997 14.1323 81.8634 14.6996V13.353L85.7181 13.3556ZM81.8647 19.6903C81.8914 19.0522 81.7263 18.4206 81.391 17.877C81.0557 17.3332 80.5653 16.9024 79.983 16.6399C79.4007 16.3772 78.7533 16.295 78.1238 16.4035C77.4943 16.512 76.9118 16.8064 76.451 17.249C75.9903 17.6914 75.6726 18.2615 75.5386 18.886C75.4047 19.5106 75.4607 20.161 75.6997 20.7534C75.9385 21.3458 76.3491 21.8532 76.8787 22.2103C77.4083 22.5674 78.0327 22.7578 78.6714 22.757C79.0875 22.786 79.505 22.7276 79.8971 22.5855C80.2893 22.4434 80.6473 22.2206 80.9481 21.9318C81.2489 21.6428 81.4859 21.2942 81.6438 20.908C81.8017 20.522 81.877 20.1072 81.8647 19.6903Z" fill="#252525"/>
<path d="M87.9606 19.9556C87.9552 18.5708 88.3606 17.2154 89.1261 16.0612C89.8914 14.9071 90.9821 14.006 92.26 13.4723C93.5378 12.9384 94.9453 12.7959 96.3042 13.0627C97.6632 13.3295 98.9124 13.9935 99.8936 14.9708C100.875 15.948 101.544 17.1946 101.816 18.5524C102.088 19.9103 101.951 21.3184 101.423 22.5984C100.894 23.8783 99.9974 24.9727 98.8464 25.7426C97.6952 26.5126 96.3416 26.9236 94.9566 26.9236C94.0374 26.9342 93.1252 26.7612 92.2736 26.4151C91.4218 26.069 90.6477 25.5566 89.9964 24.9079C89.3449 24.2591 88.8294 23.487 88.48 22.6367C88.1304 21.7864 87.9538 20.875 87.9606 19.9556ZM97.9926 19.9556C97.9761 19.3587 97.784 18.7799 97.4404 18.2915C97.0966 17.8032 96.6166 17.427 96.0604 17.21C95.504 16.993 94.896 16.9447 94.3125 17.0714C93.7289 17.198 93.1956 17.4938 92.7792 17.9219C92.3629 18.3499 92.0818 18.8912 91.9714 19.4782C91.861 20.065 91.9261 20.6714 92.1585 21.2215C92.3909 21.7716 92.7802 22.241 93.2778 22.571C93.7756 22.901 94.3594 23.077 94.9566 23.077C95.3656 23.0879 95.7724 23.0139 96.1513 22.8598C96.5304 22.7056 96.8733 22.4747 97.1585 22.1815C97.4437 21.8882 97.6652 21.539 97.8086 21.1559C97.9522 20.7728 98.0149 20.3642 97.9926 19.9556Z" fill="#252525"/>
<path d="M103.799 9.81839C103.799 9.34845 103.939 8.88908 104.2 8.49836C104.461 8.10763 104.832 7.80308 105.266 7.62325C105.7 7.44341 106.178 7.39636 106.639 7.48804C107.1 7.57972 107.523 7.80601 107.855 8.13831C108.188 8.47059 108.414 8.89395 108.506 9.35485C108.597 9.81575 108.55 10.2935 108.371 10.7276C108.191 11.1618 107.886 11.5329 107.495 11.794C107.105 12.0551 106.645 12.1944 106.175 12.1944C105.547 12.1881 104.946 11.9359 104.502 11.4916C104.058 11.0473 103.806 10.4466 103.799 9.81839ZM104.199 13.3557H108.161V26.5557H104.194L104.199 13.3557Z" fill="#252525"/>
<path d="M125.259 19.9557C125.305 20.8281 125.178 21.7009 124.885 22.524C124.593 23.347 124.14 24.1041 123.554 24.7517C122.967 25.3992 122.259 25.9245 121.469 26.2973C120.679 26.67 119.823 26.8829 118.95 26.9237C118.216 26.9637 117.483 26.84 116.803 26.5614C116.123 26.2828 115.513 25.8564 115.018 25.313V31.8344H111.058V13.3557H115.018V14.5957C115.513 14.0528 116.123 13.6266 116.803 13.3484C117.483 13.07 118.216 12.9464 118.95 12.9864C119.823 13.027 120.679 13.2398 121.469 13.6126C122.26 13.9854 122.968 14.5108 123.555 15.1585C124.141 15.8062 124.594 16.5636 124.886 17.3869C125.179 18.2101 125.306 19.0832 125.259 19.9557ZM121.299 19.9557C121.284 19.338 121.087 18.7385 120.732 18.2322C120.378 17.7261 119.882 17.3357 119.307 17.1101C118.731 16.8844 118.102 16.8333 117.498 16.9634C116.894 17.0934 116.342 17.3988 115.91 17.8412C115.479 18.2837 115.187 18.8434 115.073 19.4508C114.958 20.058 115.025 20.6854 115.265 21.2549C115.505 21.8244 115.907 22.3102 116.422 22.652C116.937 22.9936 117.541 23.1758 118.159 23.1757C118.584 23.1946 119.007 23.1236 119.402 22.9673C119.797 22.8112 120.154 22.5732 120.451 22.2692C120.747 21.965 120.976 21.6018 121.122 21.2032C121.269 20.8045 121.329 20.3793 121.299 19.9557Z" fill="#252525"/>
<path d="M137.479 22.5943C137.479 25.6303 134.841 26.9236 131.99 26.9236C130.838 27.0279 129.682 26.7844 128.67 26.2243C127.658 25.6643 126.837 24.8136 126.314 23.7823L129.745 21.829C129.883 22.3056 130.182 22.7204 130.589 23.0038C130.997 23.2872 131.49 23.4223 131.985 23.3863C132.934 23.3863 133.41 23.0956 133.41 22.569C133.41 21.1156 126.915 21.8823 126.915 17.3156C126.915 14.437 129.345 12.9863 132.09 12.9863C133.122 12.9536 134.143 13.1984 135.049 13.6951C135.954 14.1919 136.71 14.9223 137.237 15.8103L133.858 17.6316C133.71 17.2859 133.463 16.9914 133.149 16.7848C132.834 16.5783 132.466 16.469 132.09 16.4703C131.403 16.4703 130.981 16.737 130.981 17.209C130.986 18.7143 137.479 17.7103 137.479 22.5943Z" fill="#252525"/>
<path d="M151.945 13.3557V26.5557H147.985V25.3144C147.527 25.8621 146.947 26.2937 146.291 26.5737C145.635 26.8537 144.923 26.9741 144.211 26.925C141.545 26.925 139.278 25.025 139.278 21.4584V13.3557H143.238V20.8784C143.205 21.1928 143.241 21.5106 143.343 21.8097C143.445 22.1089 143.611 22.3822 143.83 22.6106C144.049 22.839 144.314 23.017 144.609 23.1324C144.902 23.2477 145.218 23.2976 145.534 23.2784C146.986 23.2784 147.989 22.4344 147.989 20.5597V13.3597L151.945 13.3557Z" fill="#252525"/>
<path d="M174.651 18.4504V26.5544H170.691V18.793C170.691 17.473 170.058 16.629 168.791 16.629C167.471 16.629 166.731 17.553 166.731 19.1104V26.5544H162.773V18.793C162.773 17.473 162.139 16.629 160.871 16.629C159.551 16.629 158.813 17.553 158.813 19.1104V26.5544H154.853V13.3544H158.813V14.5677C159.223 14.0294 159.762 13.6025 160.379 13.3261C160.998 13.0496 161.675 12.9324 162.35 12.985C163.027 12.9518 163.702 13.0949 164.309 13.4001C164.914 13.7052 165.43 14.1622 165.807 14.7264C166.246 14.1361 166.827 13.6668 167.497 13.3622C168.166 13.0577 168.902 12.928 169.635 12.985C172.666 12.9864 174.651 15.1504 174.651 18.4504Z" fill="#252525"/>
<path d="M178.001 13.2743C179.623 13.2743 180.939 11.9586 180.939 10.3356C180.939 8.71265 179.623 7.39697 178.001 7.39697C176.378 7.39697 175.062 8.71265 175.062 10.3356C175.062 11.9586 176.378 13.2743 178.001 13.2743Z" fill="#252525"/>
</svg>
