<svg width="86" height="41" viewBox="0 0 86 41" fill="none" xmlns="http://www.w3.org/2000/svg">
<path d="M0.98584 24.4265H3.50398V36.7738H0.98584V24.4265Z" fill="#252525"/>
<path d="M4.96431 32.5432C4.96265 31.6563 5.22412 30.7889 5.71563 30.0507C6.20714 29.3124 6.90659 28.7366 7.72549 28.3961C8.54433 28.0556 9.44584 27.9656 10.3159 28.1376C11.1859 28.3096 11.9854 28.7358 12.613 29.3624C13.2408 29.9889 13.6685 30.7875 13.8421 31.6572C14.0158 32.5269 13.9275 33.4286 13.5885 34.2482C13.2495 35.0676 12.675 35.7682 11.9377 36.261C11.2004 36.754 10.3335 37.017 9.44664 37.017C8.85677 37.0238 8.27162 36.9128 7.72531 36.6904C7.17902 36.4681 6.68258 36.1389 6.26513 35.7222C5.84767 35.3056 5.51758 34.8098 5.29421 34.2638C5.07085 33.7179 4.95869 33.133 4.96431 32.5432ZM11.3939 32.5432C11.3841 32.1603 11.2615 31.7889 11.0416 31.4754C10.8217 31.1618 10.5142 30.9201 10.1576 30.7803C9.80095 30.6406 9.41109 30.6092 9.03677 30.6899C8.66238 30.7707 8.32015 30.96 8.05278 31.2342C7.78549 31.5084 7.60496 31.8555 7.53379 32.2318C7.46264 32.6081 7.50404 32.9971 7.65278 33.3499C7.80158 33.7028 8.05109 34.0041 8.37011 34.2159C8.68922 34.4277 9.06362 34.5408 9.44664 34.5409C9.7086 34.5483 9.96931 34.5012 10.2122 34.4027C10.4552 34.3042 10.6751 34.1565 10.8581 33.9688C11.041 33.7811 11.1832 33.5575 11.2753 33.3122C11.3676 33.0667 11.408 32.805 11.3939 32.5432Z" fill="#252525"/>
<path d="M24.0519 28.3129V36.3541C24.0519 39.1996 21.8275 40.4 19.578 40.4C18.787 40.4588 17.995 40.2988 17.2888 39.9376C16.5826 39.5763 15.9894 39.0277 15.5742 38.3519L17.7398 37.1012C17.9116 37.4475 18.1835 37.7344 18.5202 37.9244C18.857 38.1144 19.243 38.1991 19.6284 38.1672C19.8819 38.2095 20.1418 38.1929 20.3881 38.1188C20.6343 38.0448 20.8602 37.9152 21.0483 37.74C21.2364 37.5648 21.3818 37.3487 21.4733 37.1084C21.5648 36.8681 21.5998 36.6101 21.5757 36.3541V35.5735C21.2797 35.9377 20.9019 36.2271 20.4732 36.4181C20.0445 36.6091 19.5768 36.6965 19.108 36.6731C17.9682 36.6731 16.8751 36.2203 16.0691 35.4144C15.2631 34.6084 14.8103 33.5153 14.8103 32.3754C14.8103 31.2356 15.2631 30.1426 16.0691 29.3366C16.8751 28.5306 17.9682 28.0779 19.108 28.0779C19.5765 28.0564 20.0435 28.1447 20.472 28.3355C20.9004 28.5265 21.2784 28.8147 21.5757 29.1774V28.338L24.0519 28.3129ZM21.5757 32.3754C21.5925 31.9673 21.4867 31.5634 21.2722 31.2156C21.0575 30.868 20.7438 30.5924 20.3714 30.4245C19.9989 30.2565 19.5847 30.2038 19.182 30.2731C18.7794 30.3424 18.4066 30.5306 18.1118 30.8133C17.8169 31.0962 17.6133 31.4607 17.5273 31.8601C17.4411 32.2594 17.4765 32.6755 17.6288 33.0546C17.7811 33.4338 18.0432 33.7587 18.3816 33.9877C18.72 34.2168 19.1191 34.3393 19.5276 34.3396C19.7944 34.3585 20.062 34.3213 20.3134 34.2304C20.5649 34.1394 20.7945 33.997 20.9874 33.8119C21.1803 33.6268 21.3324 33.4034 21.4338 33.156C21.5351 32.9086 21.5834 32.6427 21.5757 32.3754Z" fill="#252525"/>
<path d="M25.5041 32.5432C25.5024 31.6563 25.7639 30.7889 26.2554 30.0507C26.747 29.3124 27.4464 28.7366 28.2653 28.3961C29.0841 28.0556 29.9856 27.9656 30.8557 28.1376C31.7257 28.3096 32.5252 28.7358 33.1529 29.3624C33.7805 29.9889 34.2083 30.7875 34.382 31.6572C34.5556 32.5269 34.4673 33.4286 34.1283 34.2482C33.7892 35.0676 33.2148 35.7682 32.4775 36.261C31.7402 36.754 30.8733 37.017 29.9864 37.017C29.3966 37.0238 28.8114 36.9128 28.2651 36.6904C27.7188 36.4681 27.2223 36.1389 26.8049 35.7222C26.3875 35.3056 26.0574 34.8098 25.834 34.2638C25.6106 33.7179 25.4984 33.133 25.5041 32.5432ZM31.9338 32.5432C31.9238 32.1603 31.8013 31.7889 31.5813 31.4754C31.3614 31.1618 31.054 30.9201 30.6973 30.7803C30.3408 30.6406 29.9509 30.6092 29.5765 30.6899C29.2021 30.7707 28.8599 30.96 28.5925 31.2342C28.3253 31.5084 28.1447 31.8555 28.0735 32.2318C28.0024 32.6081 28.0438 32.9971 28.1925 33.3499C28.3413 33.7028 28.5909 34.0041 28.9099 34.2159C29.229 34.4277 29.6034 34.5408 29.9864 34.5409C30.247 34.5459 30.5059 34.4971 30.7469 34.3976C30.9877 34.298 31.2056 34.1499 31.3868 33.9625C31.5679 33.7751 31.7085 33.5523 31.7997 33.3081C31.8909 33.0639 31.9309 32.8035 31.917 32.5432H31.9338Z" fill="#252525"/>
<path d="M35.6355 26.0462C35.6355 25.7441 35.7251 25.4487 35.8929 25.1975C36.0608 24.9463 36.2994 24.7505 36.5785 24.6348C36.8577 24.5192 37.1648 24.489 37.4612 24.5479C37.7575 24.6068 38.0297 24.7524 38.2434 24.966C38.4571 25.1796 38.6025 25.4518 38.6614 25.7482C38.7205 26.0445 38.6902 26.3517 38.5746 26.6308C38.459 26.9099 38.2631 27.1486 38.0119 27.3164C37.7606 27.4843 37.4654 27.5739 37.1631 27.5739C36.7587 27.5717 36.3714 27.41 36.0854 27.124C35.7993 26.838 35.6377 26.4507 35.6355 26.0462ZM35.8957 28.3125H38.4138V36.7735H35.8957V28.3125Z" fill="#252525"/>
<path d="M49.3928 32.5434C49.4232 33.1027 49.3429 33.6625 49.1562 34.1906C48.9695 34.7187 48.6802 35.2046 48.3049 35.6205C47.9297 36.0363 47.4759 36.3738 46.9697 36.6135C46.4634 36.8533 45.9148 36.9905 45.3553 37.0173C44.8857 37.0398 44.4167 36.9591 43.9817 36.7807C43.5466 36.6023 43.1559 36.3307 42.8372 35.9849V40.1818H40.3191V28.3129H42.8372V29.1103C43.1559 28.7646 43.5466 28.4929 43.9817 28.3145C44.4167 28.1361 44.8857 28.0554 45.3553 28.0779C45.9141 28.1047 46.462 28.2417 46.9676 28.4809C47.4733 28.7202 47.9267 29.0569 48.3018 29.4719C48.677 29.8868 48.9664 30.3717 49.1536 30.8988C49.3409 31.4259 49.4222 31.9848 49.3928 32.5434ZM46.8746 32.5434C46.8647 32.1494 46.7393 31.767 46.5142 31.4436C46.289 31.1202 45.974 30.8698 45.6081 30.7237C45.2421 30.5775 44.8412 30.5418 44.4553 30.6212C44.0692 30.7005 43.7149 30.8913 43.4362 31.17C43.1576 31.4486 42.9668 31.8029 42.8874 32.1889C42.8082 32.575 42.8438 32.9758 42.9899 33.3417C43.1362 33.7077 43.3865 34.0228 43.7099 34.2478C44.0334 34.473 44.4158 34.5983 44.8097 34.6083C45.0847 34.6258 45.3601 34.5842 45.6177 34.4864C45.8753 34.3886 46.1089 34.2367 46.3029 34.0412C46.4969 33.8455 46.6468 33.6107 46.7425 33.3524C46.8382 33.0941 46.8776 32.8182 46.8578 32.5434H46.8746Z" fill="#252525"/>
<path d="M57.2329 34.2389C57.2329 36.1863 55.5541 37.0172 53.7075 37.0172C52.9698 37.0825 52.2294 36.9255 51.5817 36.5665C50.9341 36.2075 50.4086 35.6629 50.073 35.0027L52.2722 33.752C52.3614 34.0574 52.5525 34.323 52.8136 34.5047C53.0748 34.6863 53.3901 34.7733 53.7075 34.7509C54.3203 34.7509 54.6224 34.5578 54.6224 34.2221C54.6224 33.2903 50.4255 33.7856 50.4255 30.8646C50.4255 29.0179 51.9868 28.0862 53.783 28.0862C54.4459 28.0661 55.1021 28.2235 55.6836 28.5424C56.2651 28.8611 56.7507 29.3296 57.0902 29.8992L54.8827 31.0576C54.7852 30.836 54.6253 30.6473 54.4227 30.5147C54.22 30.3821 53.9833 30.3112 53.7411 30.3105C53.3046 30.3105 53.036 30.4784 53.036 30.789C53.0696 31.7543 57.2329 31.108 57.2329 34.2389Z" fill="#252525"/>
<path d="M66.4992 28.313V36.7739H63.981V35.985C63.6881 36.3355 63.3164 36.6118 62.8962 36.7913C62.4761 36.9707 62.0194 37.0482 61.5636 37.0174C59.8849 37.0174 58.3992 35.8003 58.3992 33.5088V28.313H60.9173V33.1395C60.8952 33.3452 60.9192 33.5532 60.9874 33.7484C61.0557 33.9437 61.1665 34.1213 61.3121 34.2684C61.4575 34.4156 61.6339 34.5284 61.8284 34.5988C62.0229 34.6692 62.2307 34.6954 62.4366 34.6756C63.36 34.6756 64.0063 34.1383 64.0063 32.938V28.313H66.4992Z" fill="#252525"/>
<path d="M81.0543 31.5861V36.7735H78.5361V31.8044C78.5361 30.9651 78.1248 30.411 77.319 30.411C76.5133 30.411 75.9928 31.007 75.9928 32.0059V36.7735H73.4747V31.8044C73.4747 30.9651 73.0718 30.411 72.2575 30.411C71.4434 30.411 70.9398 31.007 70.9398 32.0059V36.7735H68.4216V28.3126H70.9398V29.0932C71.203 28.7484 71.5481 28.4749 71.9439 28.2976C72.3398 28.1202 72.7736 28.0445 73.2061 28.0776C73.6404 28.0564 74.0728 28.1483 74.4611 28.3438C74.8494 28.5395 75.1805 28.8324 75.4221 29.194C75.7029 28.8159 76.0751 28.5152 76.5037 28.32C76.9324 28.1248 77.4035 28.0413 77.873 28.0776C79.7868 28.0776 81.0543 29.4709 81.0543 31.5861Z" fill="#252525"/>
<path d="M83.2033 28.2629C84.2417 28.2629 85.0834 27.421 85.0834 26.3826C85.0834 25.3442 84.2417 24.5024 83.2033 24.5024C82.1649 24.5024 81.323 25.3442 81.323 26.3826C81.323 27.421 82.1649 28.2629 83.2033 28.2629Z" fill="#252525"/>
<path d="M29.4826 18.0221C34.3455 18.0221 38.2877 14.0799 38.2877 9.21694C38.2877 4.35404 34.3455 0.411865 29.4826 0.411865C24.6197 0.411865 20.6775 4.35404 20.6775 9.21694C20.6775 14.0799 24.6197 18.0221 29.4826 18.0221Z" fill="#252525"/>
<path d="M49.1662 18.0221C54.0291 18.0221 57.9713 14.0799 57.9713 9.21694C57.9713 4.35404 54.0291 0.411865 49.1662 0.411865C44.3033 0.411865 40.3611 4.35404 40.3611 9.21694C40.3611 14.0799 44.3033 18.0221 49.1662 18.0221Z" fill="#252525"/>
<path d="M18.6045 0.411865H1.00269V18.0136H18.6045V0.411865Z" fill="#252525"/>
</svg>
