<svg width="135" height="28" viewBox="0 0 135 28" fill="none" xmlns="http://www.w3.org/2000/svg">
<path d="M43.7314 22.866C43.0516 22.9029 42.3793 22.7096 41.8228 22.3174C41.5904 22.1451 41.4033 21.9187 41.2778 21.6579C41.1523 21.397 41.0923 21.1095 41.1028 20.8203V10.226C41.0973 10.1812 41.102 10.1356 41.1167 10.0928C41.1314 10.0501 41.1556 10.0114 41.1876 9.97935C41.2196 9.94735 41.2584 9.92313 41.3011 9.9085C41.3438 9.89376 41.3894 9.88907 41.4342 9.89456H43.3542C43.5714 9.89456 43.6742 10.0088 43.6742 10.226V19.9974C43.6742 20.4317 43.8685 20.6488 44.2685 20.6488C44.4381 20.6558 44.6077 20.6366 44.7714 20.5917C45 20.5917 45.1257 20.6603 45.1371 20.866L45.3085 22.2946C45.3168 22.3363 45.316 22.3791 45.3062 22.4205C45.2965 22.4618 45.278 22.5006 45.252 22.5341C45.226 22.5677 45.1931 22.5954 45.1556 22.6151C45.118 22.6349 45.0766 22.6464 45.0342 22.6488C44.6137 22.7878 44.1742 22.8611 43.7314 22.866Z" fill="#252525"/>
<path d="M54.5314 21.6431C53.5667 22.4403 52.3542 22.8762 51.1028 22.8762C49.8514 22.8762 48.639 22.4403 47.6742 21.6431C46.8264 20.7871 46.3506 19.6309 46.3506 18.426C46.3506 17.2211 46.8264 16.0648 47.6742 15.2088C48.6409 14.4158 49.8525 13.9824 51.1028 13.9824C52.3531 13.9824 53.5648 14.4158 54.5314 15.2088C55.3598 16.0727 55.8224 17.2233 55.8224 18.4202C55.8224 19.6172 55.3598 20.7678 54.5314 21.6317V21.6431ZM49.48 20.1345C49.9277 20.5401 50.5101 20.7647 51.1142 20.7647C51.7184 20.7647 52.3009 20.5401 52.7485 20.1345C53.1538 19.6687 53.3769 19.072 53.3769 18.4545C53.3769 17.8372 53.1538 17.2405 52.7485 16.7745C52.3009 16.3691 51.7184 16.1444 51.1142 16.1444C50.5101 16.1444 49.9277 16.3691 49.48 16.7745C49.0748 17.2405 48.8516 17.8372 48.8516 18.4545C48.8516 19.072 49.0748 19.6687 49.48 20.1345Z" fill="#252525"/>
<path d="M66.3943 14.2716C66.6114 14.2716 66.7143 14.3858 66.7143 14.603V22.7973C66.7343 23.3504 66.6307 23.9009 66.4113 24.4089C66.1918 24.917 65.862 25.3698 65.4457 25.7344C64.5216 26.5224 63.3332 26.9308 62.12 26.8773C61.0242 26.9158 59.9429 26.6166 59.0228 26.0201C58.6299 25.7622 58.2942 25.4261 58.0368 25.0329C57.7792 24.6397 57.6052 24.1977 57.5257 23.7344C57.5257 23.5058 57.5257 23.403 57.8342 23.403H59.7542C59.8357 23.4057 59.9148 23.4321 59.9817 23.4788C60.0486 23.5254 60.1006 23.5903 60.1314 23.6658C60.256 24.0129 60.5042 24.302 60.8285 24.4773C61.2238 24.6813 61.6638 24.7834 62.1085 24.7744C62.3769 24.7892 62.6454 24.7502 62.8986 24.6599C63.1517 24.5697 63.3843 24.4298 63.5828 24.2487C63.7642 24.0592 63.9052 23.8349 63.9976 23.5894C64.0899 23.3439 64.1315 23.0822 64.12 22.8201V22.1001C63.4325 22.6057 62.5958 22.8672 61.7428 22.843C61.1458 22.8647 60.5506 22.7656 59.9928 22.5516C59.435 22.3374 58.9264 22.0129 58.4971 21.5973C57.6732 20.7449 57.2126 19.6057 57.2126 18.4201C57.2126 17.2346 57.6732 16.0954 58.4971 15.243C58.9284 14.8311 59.4378 14.5097 59.9952 14.2977C60.5526 14.0857 61.1468 13.9874 61.7428 14.0087C62.6205 13.9855 63.4797 14.2639 64.1771 14.7973V14.6144C64.1718 14.5706 64.1764 14.5262 64.1905 14.4844C64.2045 14.4426 64.2277 14.4045 64.2584 14.3727C64.289 14.3409 64.3264 14.3165 64.3676 14.3009C64.409 14.2854 64.4532 14.2793 64.4971 14.283L66.3943 14.2716ZM61.96 20.8087C62.2544 20.8178 62.5473 20.7622 62.8178 20.6456C63.0883 20.5292 63.33 20.3546 63.5257 20.1344C63.9057 19.6438 64.1118 19.0407 64.1118 18.4201C64.1118 17.7996 63.9057 17.1966 63.5257 16.7058C63.3307 16.4887 63.0905 16.3167 62.822 16.2022C62.5534 16.0877 62.2632 16.0334 61.9714 16.043C61.6736 16.0336 61.3773 16.089 61.103 16.2055C60.8288 16.322 60.583 16.4966 60.3828 16.7173C59.9619 17.1866 59.7405 17.8016 59.7657 18.4316C59.7451 19.0553 59.9616 19.6638 60.3714 20.1344C60.5721 20.3545 60.8179 20.5288 61.0921 20.6452C61.3662 20.7615 61.6622 20.8173 61.96 20.8087Z" fill="#252525"/>
<path d="M76.5771 21.643C75.6105 22.436 74.3988 22.8694 73.1486 22.8694C71.8983 22.8694 70.6866 22.436 69.72 21.643C68.8908 20.7771 68.428 19.6247 68.428 18.4258C68.428 17.2271 68.8908 16.0745 69.72 15.2087C70.6875 14.4177 71.8988 13.9856 73.1486 13.9856C74.3983 13.9856 75.6096 14.4177 76.5771 15.2087C77.4056 16.0726 77.8681 17.2232 77.8681 18.4201C77.8681 19.617 77.4056 20.7677 76.5771 21.6315V21.643ZM71.5143 20.1344C71.7334 20.3429 71.9916 20.5057 72.2742 20.6136C72.5567 20.7215 72.8577 20.7723 73.16 20.763C73.4603 20.7707 73.7593 20.7193 74.0398 20.6114C74.3202 20.5035 74.5766 20.3415 74.7943 20.1344C75.1929 19.6654 75.4118 19.0699 75.4118 18.4544C75.4118 17.8389 75.1929 17.2434 74.7943 16.7744C74.5766 16.5674 74.3202 16.4053 74.0398 16.2975C73.7593 16.1896 73.4603 16.1381 73.16 16.1458C72.8577 16.1366 72.5567 16.1873 72.2742 16.2952C71.9916 16.4031 71.7334 16.5661 71.5143 16.7744C71.1158 17.2434 70.8969 17.8389 70.8969 18.4544C70.8969 19.0699 71.1158 19.6654 71.5143 20.1344Z" fill="#252525"/>
<path d="M81.9943 12.3288C81.6922 12.5933 81.3043 12.739 80.9028 12.739C80.5013 12.739 80.1136 12.5933 79.8114 12.3288C79.6745 12.1996 79.5653 12.0437 79.4907 11.8708C79.4162 11.6979 79.3777 11.5115 79.3777 11.3231C79.3777 11.1348 79.4162 10.9485 79.4907 10.7755C79.5653 10.6026 79.6745 10.4467 79.8114 10.3174C80.1167 10.0596 80.5033 9.91821 80.9028 9.91821C81.3024 9.91821 81.689 10.0596 81.9943 10.3174C82.1313 10.4467 82.2404 10.6026 82.3149 10.7755C82.3896 10.9485 82.428 11.1348 82.428 11.3231C82.428 11.5115 82.3896 11.6979 82.3149 11.8708C82.2404 12.0437 82.1313 12.1996 81.9943 12.3288ZM82.2343 22.866C81.5549 22.8994 80.8837 22.7064 80.3257 22.3174C80.0968 22.1426 79.9129 21.9154 79.7897 21.6549C79.6664 21.3944 79.6072 21.1083 79.6171 20.8203V14.6031C79.6116 14.5583 79.6163 14.5127 79.6311 14.47C79.6457 14.4272 79.6699 14.3885 79.7019 14.3565C79.7339 14.3245 79.7727 14.3003 79.8154 14.2856C79.8581 14.2709 79.9037 14.2662 79.9485 14.2717H81.8685C82.0857 14.2717 82.1885 14.386 82.1885 14.6031V19.9974C82.1885 20.4317 82.3828 20.6488 82.7714 20.6488C82.9448 20.6551 83.118 20.6358 83.2857 20.5917C83.5143 20.5917 83.64 20.6603 83.6514 20.866L83.8228 22.2946C83.8311 22.3363 83.8303 22.3791 83.8205 22.4205C83.8108 22.4618 83.7923 22.5006 83.7663 22.5341C83.7403 22.5677 83.7074 22.5954 83.6699 22.6151C83.6323 22.6349 83.5909 22.6464 83.5485 22.6488C83.1243 22.7886 82.681 22.8619 82.2343 22.866Z" fill="#252525"/>
<path d="M90.8856 13.9973C91.4854 13.9736 92.0836 14.0706 92.6451 14.2826C93.2066 14.4947 93.7199 14.8174 94.1542 15.2315C94.9624 16.099 95.4118 17.2403 95.4118 18.4258C95.4118 19.6113 94.9624 20.7528 94.1542 21.6201C93.7219 22.0381 93.2094 22.3639 92.6475 22.5779C92.0857 22.7921 91.4864 22.8901 90.8856 22.8658C90.0298 22.8849 89.1911 22.6241 88.497 22.123V26.2487C88.497 26.4658 88.3827 26.5687 88.1656 26.5687H86.2456C86.2018 26.5769 86.1567 26.5743 86.114 26.5611C86.0715 26.5479 86.0328 26.5246 86.0012 26.493C85.9698 26.4615 85.9464 26.4229 85.9332 26.3802C85.92 26.3377 85.9175 26.2926 85.9256 26.2487V16.8773C85.9391 16.7856 85.9308 16.6921 85.9018 16.6041C85.8727 16.5162 85.8233 16.4362 85.7578 16.3707C85.6923 16.3053 85.6124 16.256 85.5244 16.2269C85.4366 16.1977 85.343 16.1896 85.2513 16.203H84.8742C84.6227 16.203 84.497 16.1115 84.497 15.9287V14.5801C84.4911 14.4967 84.5139 14.4137 84.5618 14.3451C84.6096 14.2765 84.6795 14.2263 84.7599 14.203C85.1552 14.0593 85.5736 13.9896 85.9942 13.9973C86.4136 13.9601 86.8345 14.0491 87.2031 14.2527C87.5715 14.4563 87.871 14.7654 88.0627 15.1401C88.4308 14.7678 88.8711 14.4744 89.3564 14.2778C89.8418 14.0814 90.3622 13.9858 90.8856 13.9973ZM89.1027 20.1344C89.3065 20.3474 89.5513 20.5169 89.8224 20.6327C90.0935 20.7485 90.3851 20.8081 90.6799 20.8081C90.9746 20.8081 91.2664 20.7485 91.5374 20.6327C91.8084 20.5169 92.0532 20.3474 92.257 20.1344C92.6863 19.6557 92.9118 19.0283 92.8856 18.3858C92.9155 17.7429 92.6895 17.1141 92.257 16.6373C92.0532 16.4243 91.8084 16.2549 91.5374 16.1391C91.2664 16.0232 90.9746 15.9635 90.6799 15.9635C90.3851 15.9635 90.0935 16.0232 89.8224 16.1391C89.5513 16.2549 89.3065 16.4243 89.1027 16.6373C88.687 17.1225 88.4705 17.7473 88.497 18.3858C88.4738 19.0239 88.6899 19.6475 89.1027 20.1344Z" fill="#252525"/>
<path d="M100.806 22.866C99.7796 22.9082 98.7624 22.6628 97.8684 22.1574C97.5098 21.9414 97.2044 21.6474 96.9748 21.2972C96.7454 20.947 96.5977 20.5497 96.5427 20.1346C96.5427 19.906 96.6227 19.7917 96.8742 19.7917H98.5542C98.634 19.7949 98.7116 19.8199 98.7782 19.8644C98.8447 19.9087 98.8977 19.9706 98.9313 20.0431C99.1713 20.6603 99.7999 20.9689 100.806 20.9689C101.156 20.985 101.506 20.9142 101.823 20.7631C101.932 20.7138 102.026 20.6356 102.094 20.537C102.163 20.4383 102.203 20.3229 102.211 20.2031C102.211 19.906 102.028 19.7003 101.663 19.5631C101.229 19.4188 100.781 19.3229 100.326 19.2774C99.7867 19.2164 99.2523 19.121 98.7256 18.9917C98.2133 18.8758 97.7476 18.6091 97.3884 18.226C97.1769 17.9657 97.0212 17.6645 96.931 17.3414C96.8408 17.0183 96.818 16.6801 96.8641 16.3478C96.9103 16.0155 97.0242 15.6962 97.1989 15.4099C97.3737 15.1235 97.6055 14.8762 97.8799 14.6831C98.7036 14.1585 99.6701 13.9028 100.646 13.9517C101.59 13.9198 102.524 14.1534 103.343 14.626C103.673 14.8129 103.956 15.0708 104.174 15.3812C104.391 15.6916 104.537 16.0466 104.6 16.4203C104.6 16.6489 104.497 16.7631 104.291 16.7631H102.6C102.529 16.7674 102.458 16.75 102.397 16.7133C102.336 16.6766 102.287 16.6222 102.257 16.5574C102.144 16.2868 101.931 16.0699 101.663 15.9517C101.36 15.7933 101.022 15.7146 100.68 15.7231C100.345 15.705 100.011 15.7718 99.7084 15.9174C99.6019 15.9586 99.5103 16.0306 99.445 16.1243C99.3799 16.218 99.3442 16.3291 99.3427 16.4431C99.35 16.5995 99.4073 16.7493 99.506 16.8707C99.6048 16.9921 99.7398 17.0785 99.8913 17.1174C100.33 17.2829 100.786 17.3979 101.251 17.4603C101.786 17.5307 102.316 17.6299 102.84 17.7574C103.352 17.8734 103.818 18.1401 104.177 18.5231C104.369 18.7342 104.518 18.9812 104.614 19.25C104.71 19.5187 104.752 19.8038 104.737 20.0889C104.747 20.4839 104.654 20.8748 104.468 21.2234C104.282 21.5718 104.008 21.8661 103.674 22.0774C102.82 22.6257 101.82 22.9006 100.806 22.866Z" fill="#252525"/>
<path d="M116.817 22.2946C116.824 22.3352 116.822 22.3766 116.813 22.4165C116.802 22.4565 116.785 22.494 116.76 22.527C116.736 22.5601 116.705 22.5878 116.67 22.6088C116.634 22.6297 116.595 22.6433 116.554 22.6489C116.137 22.7851 115.702 22.8584 115.263 22.866C114.828 22.911 114.39 22.8432 113.99 22.669C113.589 22.4948 113.24 22.2202 112.977 21.8717C112.17 22.5658 111.126 22.9219 110.063 22.866C109.569 22.8888 109.076 22.808 108.616 22.6289C108.155 22.4498 107.737 22.1763 107.388 21.826C107.042 21.459 106.774 21.0259 106.599 20.5526C106.424 20.0794 106.347 19.5757 106.371 19.0717V14.6032C106.371 14.386 106.474 14.2717 106.691 14.2717H108.611C108.828 14.2717 108.931 14.386 108.931 14.6032V18.7289C108.911 19.2429 109.086 19.7456 109.423 20.1346C109.591 20.3129 109.795 20.453 110.022 20.5457C110.248 20.6384 110.492 20.6813 110.737 20.6717C110.987 20.6827 111.238 20.644 111.473 20.5576C111.708 20.4713 111.925 20.3392 112.109 20.1689C112.282 19.9894 112.418 19.7762 112.506 19.5422C112.595 19.3083 112.634 19.0587 112.623 18.8089V14.6032C112.623 14.386 112.726 14.2717 112.943 14.2717H114.886C115.103 14.2717 115.206 14.386 115.206 14.6032V19.986C115.206 20.4317 115.4 20.6489 115.777 20.6489C115.954 20.6557 116.131 20.6365 116.303 20.5917C116.346 20.5796 116.392 20.5774 116.435 20.5854C116.48 20.5933 116.521 20.6112 116.558 20.6376C116.594 20.664 116.624 20.6982 116.646 20.7378C116.666 20.7773 116.678 20.8212 116.68 20.866L116.817 22.2946Z" fill="#252525"/>
<path d="M134.977 22.2944C134.987 22.3354 134.988 22.3781 134.98 22.4195C134.971 22.4607 134.954 22.4998 134.929 22.5336C134.904 22.5675 134.872 22.5954 134.834 22.6152C134.798 22.6352 134.756 22.6467 134.714 22.6487C134.289 22.7869 133.847 22.8602 133.4 22.8659C132.72 22.901 132.049 22.7079 131.491 22.3173C131.25 22.15 131.055 21.9259 130.921 21.6647C130.787 21.4036 130.72 21.1134 130.726 20.8202V18.1344C130.75 17.622 130.578 17.1195 130.246 16.7287C130.086 16.5501 129.887 16.4093 129.666 16.3164C129.444 16.2236 129.206 16.181 128.966 16.1916C128.75 16.1835 128.535 16.2245 128.336 16.3116C128.138 16.3987 127.963 16.5296 127.823 16.6944C127.521 17.0774 127.367 17.556 127.388 18.043V22.2602C127.388 22.4773 127.286 22.5916 127.068 22.5916H125.137C125.092 22.5972 125.047 22.5924 125.004 22.5778C124.961 22.563 124.922 22.5388 124.89 22.5068C124.858 22.4749 124.834 22.436 124.819 22.3933C124.804 22.3506 124.8 22.3051 124.806 22.2602V18.1344C124.831 17.6276 124.672 17.1286 124.36 16.7287C124.22 16.5607 124.046 16.4255 123.848 16.3327C123.651 16.2399 123.435 16.1917 123.217 16.1916C122.984 16.1822 122.752 16.2221 122.535 16.3088C122.318 16.3955 122.122 16.5269 121.96 16.6944C121.633 17.0652 121.465 17.5495 121.491 18.043V22.2602C121.497 22.3051 121.492 22.3506 121.478 22.3933C121.463 22.436 121.439 22.4749 121.407 22.5068C121.375 22.5388 121.336 22.563 121.294 22.5778C121.25 22.5924 121.204 22.5972 121.16 22.5916H119.297C119.08 22.5916 118.977 22.4773 118.977 22.2602V16.8773C118.991 16.7856 118.983 16.6922 118.953 16.6042C118.924 16.5163 118.875 16.4363 118.809 16.3708C118.744 16.3053 118.664 16.256 118.576 16.2269C118.488 16.1978 118.394 16.1896 118.303 16.203H117.926C117.674 16.203 117.548 16.1116 117.548 15.9287V14.5802C117.543 14.4967 117.566 14.4138 117.614 14.3452C117.662 14.2765 117.731 14.2263 117.811 14.203C118.207 14.0594 118.625 13.9896 119.046 13.9973C119.449 13.9629 119.855 14.0434 120.215 14.2294C120.575 14.4155 120.874 14.6995 121.08 15.0487C121.465 14.6834 121.922 14.4013 122.422 14.2204C122.921 14.0395 123.452 13.9636 123.983 13.9973C124.498 13.9722 125.011 14.0687 125.482 14.2792C125.953 14.4898 126.367 14.8082 126.691 15.2087C127.07 14.7976 127.535 14.4758 128.052 14.2662C128.57 14.0567 129.128 13.965 129.686 13.9973C130.184 13.974 130.682 14.0543 131.148 14.2334C131.615 14.4124 132.039 14.6861 132.394 15.0373C132.742 15.4036 133.01 15.8366 133.185 16.3101C133.36 16.7835 133.438 17.2876 133.411 17.7916V19.9973C133.411 20.4316 133.606 20.6487 133.971 20.6487C134.148 20.657 134.326 20.6378 134.497 20.5916C134.734 20.5916 134.859 20.683 134.874 20.8659L134.977 22.2944Z" fill="#252525"/>
<path d="M0.965642 12.786C1.80881 9.39704 3.76156 6.38755 6.51296 4.23686C9.26439 2.08611 12.6563 0.917725 16.1485 0.917725C19.6407 0.917725 23.0326 2.08611 25.784 4.23686C28.5355 6.38755 30.4882 9.39704 31.3314 12.786H29.9599C27.6464 12.7519 25.3804 13.4433 23.4799 14.7631C23.3702 14.8425 23.2557 14.9151 23.1371 14.9802H22.9771C22.8584 14.9151 22.7439 14.8425 22.6342 14.7631C20.717 13.4738 18.4589 12.7853 16.1485 12.7853C13.8381 12.7853 11.58 13.4738 9.66279 14.7631C9.55307 14.8425 9.43856 14.9151 9.31993 14.9802H9.15993C9.0413 14.9151 8.92678 14.8425 8.81707 14.7631C6.91661 13.4433 4.65056 12.7519 2.33707 12.786H0.965642ZM27.4914 19.9517C28.1954 19.4034 29.0679 19.1166 29.9599 19.1402H31.7999V15.4717H29.9599C28.3887 15.4527 26.8535 15.9417 25.5828 16.866C24.8677 17.3932 24.0027 17.6776 23.1142 17.6776C22.2258 17.6776 21.3607 17.3932 20.6456 16.866C19.3427 15.959 17.7932 15.4727 16.2056 15.4727C14.6181 15.4727 13.0686 15.959 11.7656 16.866C11.0506 17.3932 10.1855 17.6776 9.29707 17.6776C8.40861 17.6776 7.54358 17.3932 6.8285 16.866C5.5421 15.9298 3.98484 15.4402 2.39421 15.4717H0.49707V19.1402H2.33707C3.22908 19.1166 4.10164 19.4034 4.80564 19.9517C6.10621 20.8593 7.65398 21.346 9.23993 21.346C10.8259 21.346 12.3736 20.8593 13.6742 19.9517C14.3791 19.4052 15.251 19.1185 16.1428 19.1402C17.0351 19.1146 17.9083 19.4017 18.6114 19.9517C19.9143 20.8588 21.4638 21.3449 23.0514 21.3449C24.6389 21.3449 26.1884 20.8588 27.4914 19.9517ZM27.4914 26.5117C28.1954 25.9634 29.0679 25.6766 29.9599 25.7002H31.7999V22.0317H29.9599C28.3887 22.0127 26.8535 22.5017 25.5828 23.426C24.8677 23.9532 24.0027 24.2376 23.1142 24.2376C22.2258 24.2376 21.3607 23.9532 20.6456 23.426C19.3427 22.519 17.7932 22.0328 16.2056 22.0328C14.6181 22.0328 13.0686 22.519 11.7656 23.426C11.0506 23.9532 10.1855 24.2376 9.29707 24.2376C8.40861 24.2376 7.54358 23.9532 6.8285 23.426C5.5421 22.49 3.98484 22.0002 2.39421 22.0317H0.49707V25.7002H2.33707C3.22908 25.6766 4.10164 25.9634 4.80564 26.5117C6.10621 27.4193 7.65398 27.906 9.23993 27.906C10.8259 27.906 12.3736 27.4193 13.6742 26.5117C14.3791 25.9652 15.251 25.6785 16.1428 25.7002C17.0351 25.6746 17.9083 25.9617 18.6114 26.5117C19.9143 27.4188 21.4638 27.9049 23.0514 27.9049C24.6389 27.9049 26.1884 27.4188 27.4914 26.5117Z" fill="#252525"/>
</svg>
