<svg width="145" height="35" viewBox="0 0 145 35" fill="none" xmlns="http://www.w3.org/2000/svg">
<path d="M41.2144 10.8521H44.8829V25.7092H41.2144V10.8521ZM46.3458 20.1207C46.3458 16.4407 48.6315 14.2349 52.0601 14.2349C55.4886 14.2349 57.7744 16.4407 57.7744 20.1207C57.7744 23.8007 55.5686 26.0292 52.0601 26.0292C48.5515 26.0292 46.3458 23.8807 46.3458 20.1207ZM54.1401 20.1207C54.1401 18.0978 53.3515 16.9092 52.0944 16.9092C50.8372 16.9092 50.0601 18.0521 50.0601 20.1207C50.0601 22.1892 50.8372 23.3207 52.0944 23.3207C53.3515 23.3207 54.1629 22.1892 54.1629 20.1321L54.1401 20.1207ZM59.2372 26.475H62.7801C62.9413 26.8563 63.223 27.1746 63.5821 27.3809C63.9412 27.5873 64.3579 27.6705 64.7686 27.6178C66.1744 27.6178 66.9058 26.8635 66.9058 25.7435V23.6864H66.9172C66.6145 24.3269 66.1249 24.8608 65.513 25.2178C64.901 25.5748 64.1953 25.7381 63.4886 25.6864C60.8029 25.6864 59.0201 23.6407 59.0201 20.1207C59.0201 16.6007 60.7229 14.4064 63.5915 14.4064C64.3162 14.3676 65.0352 14.5545 65.6491 14.9413C66.2632 15.3282 66.7421 15.896 67.0201 16.5664H66.9172V14.4978H70.5515V25.6292C70.5515 28.315 68.1744 29.9949 64.6772 29.9949C61.5001 29.9835 59.4658 28.5321 59.2601 26.4864L59.2372 26.475ZM66.9172 20.1207C66.9172 18.3264 66.0944 17.1949 64.7915 17.1949C63.4886 17.1949 62.6886 18.3378 62.6886 20.1207C62.6886 21.9035 63.4772 22.955 64.7915 22.955C66.1058 22.955 66.9172 21.9835 66.9172 20.1207ZM72.0029 20.1207C72.0029 16.4407 74.2886 14.2349 77.7172 14.2349C81.1458 14.2349 83.4315 16.4407 83.4315 20.1207C83.4315 23.8007 81.2144 26.0292 77.7172 26.0292C74.2201 26.0292 72.0258 23.8807 72.0258 20.1207H72.0029ZM79.7972 20.1207C79.7972 18.0978 78.9972 16.9092 77.7515 16.9092C76.5058 16.9092 75.7172 18.0521 75.7172 20.1207C75.7172 22.1892 76.4944 23.3207 77.7515 23.3207C79.0086 23.3207 79.8201 22.1892 79.8201 20.1321L79.7972 20.1207ZM84.9172 11.7892C84.9012 11.4155 84.9974 11.0456 85.1934 10.7271C85.3894 10.4084 85.6763 10.1559 86.0171 10.0017C86.3579 9.84741 86.737 9.79872 87.1057 9.86181C87.4744 9.92478 87.8157 10.0967 88.0859 10.3553C88.3561 10.614 88.5427 10.9475 88.6218 11.3131C88.7008 11.6787 88.6686 12.0596 88.5294 12.4067C88.3902 12.7539 88.1504 13.0515 87.8406 13.2612C87.5309 13.4709 87.1656 13.5832 86.7915 13.5835C86.5525 13.5896 86.3146 13.5481 86.0917 13.4616C85.8689 13.3749 85.6653 13.2449 85.4931 13.0791C85.3209 12.9132 85.1833 12.7148 85.0884 12.4953C84.9935 12.2759 84.943 12.0397 84.9401 11.8007L84.9172 11.7892ZM84.9172 14.4864H88.6315V25.7549H84.9744L84.9172 14.4864ZM101.992 20.1207C101.992 23.7892 100.346 25.915 97.5458 25.915C96.829 25.9592 96.1158 25.7823 95.5027 25.4083C94.8896 25.0343 94.406 24.4811 94.1172 23.8235H94.0486V29.3778H90.3801V14.5207H94.0258V16.5321H94.0944C94.3732 15.8616 94.8521 15.2932 95.4656 14.9047C96.0792 14.5161 96.7976 14.3261 97.5229 14.3607C100.403 14.3378 102.06 16.4521 102.06 20.1321L101.992 20.1207ZM98.2544 20.1207C98.2544 18.3378 97.4201 17.1835 96.1286 17.1835C94.8372 17.1835 94.0258 18.3264 94.0144 20.1207C94.0029 21.915 94.8372 23.0464 96.1286 23.0464C97.4201 23.0464 98.3229 21.9835 98.3229 20.1321L98.2544 20.1207ZM108.254 14.2235C111.329 14.2235 113.237 15.675 113.26 18.0064H109.912C109.912 17.195 109.237 16.6921 108.232 16.6921C107.226 16.6921 106.746 17.0807 106.746 17.6635C106.746 18.2464 107.169 18.4292 108.014 18.6007L110.369 19.0807C112.654 19.5607 113.569 20.4749 113.569 22.1778C113.569 24.4635 111.454 26.0178 108.312 26.0178C105.169 26.0178 103.123 24.5092 102.974 22.2121H106.529C106.632 23.0464 107.294 23.5378 108.369 23.5378C109.443 23.5378 109.946 23.195 109.946 22.5892C109.946 21.9835 109.603 21.8807 108.723 21.6978L106.597 21.2521C104.392 20.7835 103.237 19.6292 103.237 17.9035C103.306 15.6635 105.226 14.2349 108.323 14.2349L108.254 14.2235ZM125.854 25.7435H122.3V23.6292H122.231C122.033 24.3345 121.6 24.9508 121.003 25.3767C120.406 25.8026 119.683 26.0126 118.952 25.9721C118.4 25.99 117.849 25.8911 117.338 25.6815C116.827 25.472 116.365 25.1567 115.985 24.7563C115.603 24.3559 115.312 23.8794 115.127 23.3583C114.943 22.8371 114.872 22.2828 114.917 21.7321V14.4978H118.586V20.9435C118.586 22.2692 119.283 22.9892 120.426 22.9892C120.694 22.9872 120.958 22.9276 121.202 22.8147C121.445 22.7017 121.661 22.5378 121.835 22.3342C122.01 22.1305 122.139 21.8917 122.213 21.6341C122.286 21.3764 122.305 21.1059 122.266 20.8407V14.4978H125.923L125.854 25.7435ZM127.626 14.4864H131.191V16.6578H131.272C131.468 15.9621 131.891 15.3515 132.472 14.9213C133.053 14.4913 133.761 14.2659 134.483 14.2807C135.209 14.2176 135.932 14.4274 136.51 14.8691C137.09 15.3108 137.483 15.9528 137.614 16.6692H137.774C138.003 15.9489 138.462 15.3242 139.083 14.8923C139.702 14.4603 140.449 14.2453 141.203 14.2807C141.705 14.2616 142.205 14.3487 142.67 14.5362C143.137 14.7236 143.557 15.0074 143.906 15.3689C144.254 15.7303 144.522 16.1612 144.692 16.6335C144.864 17.1057 144.932 17.6086 144.894 18.1092V25.7549H141.203V19.0464C141.203 17.9035 140.666 17.2635 139.626 17.2635C139.395 17.2598 139.166 17.3059 138.955 17.3987C138.743 17.4916 138.556 17.6291 138.403 17.8017C138.25 17.9744 138.136 18.1779 138.068 18.3987C138.002 18.6195 137.983 18.8521 138.014 19.0807V25.7549H134.517V19.0121C134.517 17.8692 133.957 17.2635 132.952 17.2635C132.718 17.2617 132.488 17.3097 132.275 17.4043C132.061 17.4991 131.871 17.6381 131.716 17.8124C131.562 17.9867 131.446 18.1921 131.378 18.4147C131.308 18.6375 131.287 18.8723 131.317 19.1035V25.7549H127.649L127.626 14.4864Z" fill="#252525"/>
<path d="M33.9573 11.8235C33.9574 9.54884 33.2705 7.3272 31.9866 5.44955C30.7028 3.5719 28.8816 2.12579 26.762 1.30065C24.6423 0.475492 22.3228 0.309778 20.1073 0.825195C17.8918 1.34061 15.8837 2.51314 14.3458 4.18918H0.0830078V34.292H30.1973V20.2235C31.3792 19.1663 32.325 17.8718 32.9729 16.4244C33.6208 14.977 33.9562 13.4093 33.9573 11.8235ZM28.163 11.8235C28.1653 12.9134 27.8441 13.9796 27.2402 14.887C26.6362 15.7943 25.7768 16.5022 24.7704 16.9208C23.764 17.3396 22.6561 17.4503 21.5868 17.239C20.5175 17.0278 19.5349 16.504 18.7633 15.7341C17.9918 14.9642 17.4661 13.9827 17.2526 12.9138C17.0391 11.845 17.1476 10.7367 17.5641 9.72953C17.9807 8.72228 18.6868 7.86129 19.5928 7.25549C20.499 6.6497 21.5645 6.32634 22.6544 6.32633C24.1134 6.32633 25.5128 6.90513 26.5455 7.93571C27.5783 8.96629 28.16 10.3645 28.163 11.8235ZM24.403 28.4978H5.87729V9.98347H11.523C11.414 10.5909 11.3566 11.2064 11.3516 11.8235C11.3546 14.8203 12.5464 17.6934 14.6655 19.8125C16.7845 21.9315 19.6576 23.1234 22.6544 23.1263C23.2404 23.1232 23.825 23.0735 24.403 22.9778V28.4978Z" fill="#252525"/>
</svg>
