<svg width="151" height="37" viewBox="0 0 151 37" fill="none" xmlns="http://www.w3.org/2000/svg">
<path fill-rule="evenodd" clip-rule="evenodd" d="M19.6504 0.589147L19.6289 0.551758H10.6877L0.095459 18.71L7.3665 31.4322L7.37543 31.4168L10.1242 36.1778L31.1457 36.2718L38.5281 23.6137H38.479L41.2061 18.8902L30.7767 0.637958L19.6504 0.589147ZM26.5669 12.6985H26.6226L21.3667 3.57016L29.0469 3.60384L37.7771 18.8826L35.0445 23.6157L27.8834 23.6195L30.3802 19.2951L26.5669 12.6985ZM17.8296 3.52516L21.4134 9.72491L16.4514 9.7248L7.95636 24.4569L7.37689 25.4579L3.52897 18.7251L12.3956 3.52516H17.8296ZM14.384 19.2625L18.1691 12.6982L23.1324 12.6985L26.9462 19.296L24.4489 23.6214L16.9027 23.6255L14.384 19.2625ZM9.09105 28.4415L10.5311 25.9442L12.6725 22.2452L15.1864 26.5998L22.7314 26.5957L22.7192 26.6168L33.3272 26.6294L29.4422 33.2908L11.8453 33.212L9.09105 28.4415Z" fill="#252525"/>
<path d="M95.3603 11.4328C96.3785 11.4328 97.2058 10.6055 97.2058 9.56617C97.2058 8.52676 96.3785 7.7207 95.3603 7.7207C94.321 7.7207 93.4937 8.52676 93.4937 9.56617C93.4937 10.6055 94.321 11.4328 95.3603 11.4328ZM93.7058 23.6934H96.9936V13.0874H93.7058V23.6934Z" fill="#252525"/>
<path d="M98.9075 28.7842H102.132V22.6327C102.747 23.4388 104.147 23.9902 105.611 23.9902C108.771 23.9902 110.68 21.5721 110.596 18.2206C110.51 14.8054 108.538 12.7478 105.589 12.7478C104.083 12.7478 102.662 13.4054 102.068 14.3811L101.898 13.0872H98.9075V28.7842ZM102.195 18.3902C102.195 16.7994 103.256 15.7388 104.783 15.7388C106.332 15.7388 107.308 16.8206 107.308 18.3902C107.308 19.9599 106.332 21.0418 104.783 21.0418C103.256 21.0418 102.195 19.9811 102.195 18.3902Z" fill="#252525"/>
<path d="M110.944 20.3418C111.028 22.4842 112.726 23.969 115.398 23.969C117.965 23.969 119.747 22.6115 119.747 20.4266C119.747 18.8569 118.814 17.8176 117.074 17.3932L115.186 16.9266C114.507 16.7569 114.083 16.5872 114.083 16.0357C114.083 15.4842 114.528 15.1236 115.186 15.1236C115.928 15.1236 116.416 15.6115 116.395 16.3327H119.344C119.259 14.1266 117.583 12.7478 115.249 12.7478C112.895 12.7478 111.135 14.1478 111.135 16.269C111.135 17.6902 111.919 18.8569 114.019 19.4085L115.886 19.8964C116.437 20.0448 116.671 20.2994 116.671 20.6599C116.671 21.1902 116.183 21.5297 115.356 21.5297C114.402 21.5297 113.893 21.0842 113.893 20.3418H110.944Z" fill="#252525"/>
<path d="M124.747 23.9692C126.04 23.9692 127.335 23.3753 127.993 22.5056L128.205 23.6934H131.28V13.0874H128.014V18.6025C128.014 20.1934 127.547 21.0632 126.04 21.0632C124.874 21.0632 124.11 20.5328 124.11 18.5601V13.0874H120.844V19.748C120.844 22.2723 122.244 23.9692 124.747 23.9692Z" fill="#252525"/>
<path d="M136.46 23.6932V17.9023C136.46 16.1206 137.415 15.6115 138.348 15.6115C139.388 15.6115 140.067 16.2478 140.067 17.563V23.6932H143.29V17.9023C143.29 16.0993 144.224 15.5902 145.157 15.5902C146.197 15.5902 146.897 16.2266 146.897 17.563V23.6932H150.078V16.7569C150.078 14.3387 148.806 12.7266 146.069 12.7266C144.543 12.7266 143.29 13.469 142.739 14.6145C142.103 13.469 141 12.7266 139.239 12.7266C138.073 12.7266 136.99 13.2569 136.355 14.1053L136.227 13.0872H133.173V23.6932H136.46Z" fill="#252525"/>
<path d="M50.5584 7.99805H47.0796V23.6951H56.7099V20.6193H50.5584V7.99805Z" fill="#252525"/>
<path d="M57.042 18.3709C57.042 21.7223 59.2905 23.9496 62.6844 23.9496C66.0572 23.9496 68.3057 21.7223 68.3057 18.3709C68.3057 15.0193 66.0572 12.7708 62.6844 12.7708C59.2905 12.7708 57.042 15.0193 57.042 18.3709ZM60.3299 18.3496C60.3299 16.7586 61.2632 15.6981 62.6844 15.6981C64.0844 15.6981 65.0178 16.7586 65.0178 18.3496C65.0178 19.9618 64.0844 21.0223 62.6844 21.0223C61.2632 21.0223 60.3299 19.9618 60.3299 18.3496Z" fill="#252525"/>
<path d="M68.8312 18.2009C68.8312 21.404 70.91 23.5676 73.8585 23.5676C75.2797 23.5676 76.51 23.0586 77.1251 22.2313V23.6949C77.1251 25.1586 76.213 26.1343 74.6009 26.1343C73.1585 26.1343 72.1615 25.4555 72.0978 24.2464H68.7888C69.0857 27.1525 71.3343 29.104 74.41 29.104C78.0373 29.104 80.3282 26.7495 80.3282 23.0162V13.0888H77.3797L77.21 14.1707C76.616 13.3009 75.3646 12.7283 73.9222 12.7283C70.9524 12.7283 68.8312 14.9555 68.8312 18.2009ZM72.1403 18.1162C72.1403 16.5888 73.1585 15.5707 74.4524 15.5707C75.9585 15.5707 77.0615 16.5676 77.0615 18.1162C77.0615 19.6646 75.9797 20.7252 74.4736 20.7252C73.1797 20.7252 72.1403 19.6646 72.1403 18.1162Z" fill="#252525"/>
<path d="M81.2803 18.3709C81.2803 21.7223 83.5287 23.9496 86.9227 23.9496C90.2954 23.9496 92.5439 21.7223 92.5439 18.3709C92.5439 15.0193 90.2954 12.7708 86.9227 12.7708C83.5287 12.7708 81.2803 15.0193 81.2803 18.3709ZM84.5682 18.3496C84.5682 16.7586 85.5015 15.6981 86.9227 15.6981C88.3227 15.6981 89.2561 16.7586 89.2561 18.3496C89.2561 19.9618 88.3227 21.0223 86.9227 21.0223C85.5015 21.0223 84.5682 19.9618 84.5682 18.3496Z" fill="#252525"/>
</svg>
